<?xml version="1.0" standalone="no"?>
<!DOCTYPE svg PUBLIC "-//W3C//DTD SVG 1.1//EN" "http://www.w3.org/Graphics/SVG/1.1/DTD/svg11.dtd" >
<svg xmlns="http://www.w3.org/2000/svg">
<defs>
  <font id="hero-icons" horiz-adv-x="2853">
    <font-face font-family="hero-icons"
      units-per-em="1025" ascent="1025"
      descent="0" />
    <missing-glyph horiz-adv-x="0" />
    <glyph glyph-name="activate"
      unicode="&#xE678;"
      horiz-adv-x="1024" d="M432.422323 787L433.091054 786.997021C449.561843 786.850015 464.209488 781.2577220000001 476.140527 769.326683C488.232796 758.164589 494.744018 742.351621 494.744018 725.608479L494.744018 725.608479L494.744018 519.109726C504.975939 536.783042 524.509604 547.9451369999999 546.833794 547.9451369999999C581.250253 547.9451369999999 609.15549 520.0399 609.15549 485.623441L609.15549 485.623441L609.15549 483.763092C619.38741 501.436409 638.921076 512.598504 661.245265 512.598504C695.661724 512.598504 723.566961 484.693267 723.566961 450.276808L723.566961 450.276808L723.566961 448.4164590000001C733.798881 465.159601 753.332547 477.2518700000001 775.656737 477.2518700000001C810.073195 477.2518700000001 837.978432 450.276808 837.978432 415.8603490000001L837.978432 415.8603490000001L837.978432 244.708229C837.978432 190.758105 816.584417 139.5985040000001 778.44726 100.531172C740.310103 62.394015 689.150502 41 634.270203 41L634.270203 41L536.601874 41C466.838781 41 401.726562 71.695761 357.078183 125.645885L357.078183 125.645885L200.808856 314.471322C189.646761 328.42394 184.065714 346.097257 186.856238 363.770574C189.646761 380.5137160000001 198.948507 396.326683 213.8313 406.558603C238.015839 423.301746 271.502123 420.511222 292.896138 399.117207L292.896138 399.117207L356.148008 334.935162C358.938532 332.144638 361.729056 332.144638 365.449754 333.074813C369.170452 334.935162 371.030801 337.725686 371.030801 341.446384L371.030801 341.446384L371.030801 724.678304C371.030801 759.0947630000001 398.005864 787 432.422323 787L432.422323 787zM789.942857 1024C918.674286 1024 1024 917.229268 1024 786.731707C1024 657.539122 920.770267 551.6012020000001 793.797696 549.495363L789.942857 549.4634149999999L554.158203 549.4634149999999L554.158203 749.5C554.158203 803.147206 494.17187 851.7769470000001 433.051086 851.7769470000001C372.541511 851.7769470000001 307.71653 818.698144 306.426081 751.545363L306.406494 749.5L306.406494 549.4634149999999L234.057143 549.4634149999999C105.325714 549.4634149999999 0 656.234146 0 786.731707C0 915.924293 103.229733 1021.86221268 230.202304 1023.9680518244L234.057143 1024L789.942857 1024zM815.057143 923.195122C741.914286 923.195122 683.4 863.878049 683.4 789.731707C683.4 715.585366 741.914286 656.2682930000001 815.057143 656.2682930000001C888.2 656.2682930000001 946.714286 715.585366 946.714286 789.731707C946.714286 863.878049 888.2 923.195122 815.057143 923.195122zM895.399385 865.208298C908.072856 853.089844 908.757729 833.159486 897.128987 820.207464L896.772832 819.817129L896.405424 819.427283L804.908698 723.902898C804.270672 723.133096 803.591915 722.386083 802.872434 721.664765C790.350226 709.11059 770.186783 709.046846 757.586568 721.426642L757.207074 721.805597L727.787949 751.662739L727.414592 752.047845C715.218871 764.833168 715.405358 785.171304 727.927566 797.725479C740.449774 810.2796539999999 760.613217 810.343398 773.213432 797.963602L773.592926 797.584647L779.766 791.319122L849.578876 864.203126L849.952557 864.5869749999999C862.363582 877.130495 882.597899 877.449161 895.399385 865.208298z" />
    <glyph glyph-name="activate-1"
      unicode="&#x61;&#x63;&#x74;&#x69;&#x76;&#x61;&#x74;&#x65;"
      horiz-adv-x="1024" d="M432.422323 787L433.091054 786.997021C449.561843 786.850015 464.209488 781.2577220000001 476.140527 769.326683C488.232796 758.164589 494.744018 742.351621 494.744018 725.608479L494.744018 725.608479L494.744018 519.109726C504.975939 536.783042 524.509604 547.9451369999999 546.833794 547.9451369999999C581.250253 547.9451369999999 609.15549 520.0399 609.15549 485.623441L609.15549 485.623441L609.15549 483.763092C619.38741 501.436409 638.921076 512.598504 661.245265 512.598504C695.661724 512.598504 723.566961 484.693267 723.566961 450.276808L723.566961 450.276808L723.566961 448.4164590000001C733.798881 465.159601 753.332547 477.2518700000001 775.656737 477.2518700000001C810.073195 477.2518700000001 837.978432 450.276808 837.978432 415.8603490000001L837.978432 415.8603490000001L837.978432 244.708229C837.978432 190.758105 816.584417 139.5985040000001 778.44726 100.531172C740.310103 62.394015 689.150502 41 634.270203 41L634.270203 41L536.601874 41C466.838781 41 401.726562 71.695761 357.078183 125.645885L357.078183 125.645885L200.808856 314.471322C189.646761 328.42394 184.065714 346.097257 186.856238 363.770574C189.646761 380.5137160000001 198.948507 396.326683 213.8313 406.558603C238.015839 423.301746 271.502123 420.511222 292.896138 399.117207L292.896138 399.117207L356.148008 334.935162C358.938532 332.144638 361.729056 332.144638 365.449754 333.074813C369.170452 334.935162 371.030801 337.725686 371.030801 341.446384L371.030801 341.446384L371.030801 724.678304C371.030801 759.0947630000001 398.005864 787 432.422323 787L432.422323 787zM789.942857 1024C918.674286 1024 1024 917.229268 1024 786.731707C1024 657.539122 920.770267 551.6012020000001 793.797696 549.495363L789.942857 549.4634149999999L554.158203 549.4634149999999L554.158203 749.5C554.158203 803.147206 494.17187 851.7769470000001 433.051086 851.7769470000001C372.541511 851.7769470000001 307.71653 818.698144 306.426081 751.545363L306.406494 749.5L306.406494 549.4634149999999L234.057143 549.4634149999999C105.325714 549.4634149999999 0 656.234146 0 786.731707C0 915.924293 103.229733 1021.86221268 230.202304 1023.9680518244L234.057143 1024L789.942857 1024zM815.057143 923.195122C741.914286 923.195122 683.4 863.878049 683.4 789.731707C683.4 715.585366 741.914286 656.2682930000001 815.057143 656.2682930000001C888.2 656.2682930000001 946.714286 715.585366 946.714286 789.731707C946.714286 863.878049 888.2 923.195122 815.057143 923.195122zM895.399385 865.208298C908.072856 853.089844 908.757729 833.159486 897.128987 820.207464L896.772832 819.817129L896.405424 819.427283L804.908698 723.902898C804.270672 723.133096 803.591915 722.386083 802.872434 721.664765C790.350226 709.11059 770.186783 709.046846 757.586568 721.426642L757.207074 721.805597L727.787949 751.662739L727.414592 752.047845C715.218871 764.833168 715.405358 785.171304 727.927566 797.725479C740.449774 810.2796539999999 760.613217 810.343398 773.213432 797.963602L773.592926 797.584647L779.766 791.319122L849.578876 864.203126L849.952557 864.5869749999999C862.363582 877.130495 882.597899 877.449161 895.399385 865.208298z" />
    <glyph glyph-name="add-emoji"
      unicode="&#xE679;"
      horiz-adv-x="1024" d="M512 85.333C452.978 85.333 397.511 96.54 345.6 118.9550000000001C293.689 141.34 248.533 171.733 210.133 210.1330000000001C171.733 248.533 141.34 293.689 118.955 345.6C96.5404 397.511 85.3333 452.978 85.3333 512C85.3333 571.0219999999999 96.5404 626.489 118.955 678.4C141.34 730.3109999999999 171.733 775.467 210.133 813.867C248.533 852.267 293.689 882.674 345.6 905.088C397.511 927.4738 452.978 938.6667 512 938.6667C542.578 938.6667 572.089 935.6516 600.533 929.6214C628.978 923.563 656.355 914.844 682.667 903.467V807.467C657.778 821.689 630.94 832.896 602.155 841.088C573.34 849.252 543.289 853.333 512 853.333C417.4220000000001 853.333 336.896 820.096 270.421 753.621C203.918 687.1179999999999 170.667 606.578 170.667 512C170.667 417.4220000000001 203.918 336.882 270.421 270.379C336.896 203.904 417.4220000000001 170.667 512 170.667C606.578 170.667 687.118 203.904 753.621 270.379C820.096 336.882 853.333 417.4220000000001 853.333 512C853.333 534.756 851.015 556.8 846.379 578.133C841.771 599.467 835.555 620.0889999999999 827.733 640H919.467C925.867 619.3779999999999 930.674 598.585 933.888 577.621C937.074 556.629 938.667 534.756 938.667 512C938.667 452.978 927.459 397.511 905.045 345.6C882.659 293.689 852.267 248.533 813.867 210.1330000000001C775.467 171.733 730.311 141.34 678.4 118.9550000000001C626.489 96.54 571.022 85.333 512 85.333zM661.333 554.6669999999999C679.822 554.6669999999999 695.111 560.711 707.2 572.8C719.289 584.889 725.333 600.178 725.333 618.6669999999999C725.333 637.156 719.289 652.444 707.2 664.533C695.111 676.6220000000001 679.822 682.6669999999999 661.333 682.6669999999999C642.844 682.6669999999999 627.555 676.6220000000001 615.467 664.533C603.378 652.444 597.333 637.156 597.333 618.6669999999999C597.333 600.178 603.378 584.889 615.467 572.8C627.555 560.711 642.844 554.6669999999999 661.333 554.6669999999999zM362.667 554.6669999999999C381.155 554.6669999999999 396.444 560.711 408.533 572.8C420.622 584.889 426.667 600.178 426.667 618.6669999999999C426.667 637.156 420.622 652.444 408.533 664.533C396.444 676.6220000000001 381.155 682.6669999999999 362.667 682.6669999999999C344.178 682.6669999999999 328.889 676.6220000000001 316.8 664.533C304.711 652.444 298.667 637.156 298.667 618.6669999999999C298.667 600.178 304.711 584.889 316.8 572.8C328.889 560.711 344.178 554.6669999999999 362.667 554.6669999999999zM512 277.333C562.489 277.333 607.104 291.2000000000001 645.845 318.933C684.615 346.6670000000001 712.533 382.578 729.6 426.6670000000001H294.4C311.467 382.578 339.385 346.6670000000001 378.155 318.933C416.896 291.2000000000001 461.511 277.333 512 277.333zM853.333 725.3330000000001V810.667H768V896H853.333V981.3334H938.667V896H1024V810.667H938.667V725.3330000000001H853.333z" />
    <glyph glyph-name="add-emoji-1"
      unicode="&#x61;&#x64;&#x64;&#x2D;&#x65;&#x6D;&#x6F;&#x6A;&#x69;"
      horiz-adv-x="1024" d="M512 85.333C452.978 85.333 397.511 96.54 345.6 118.9550000000001C293.689 141.34 248.533 171.733 210.133 210.1330000000001C171.733 248.533 141.34 293.689 118.955 345.6C96.5404 397.511 85.3333 452.978 85.3333 512C85.3333 571.0219999999999 96.5404 626.489 118.955 678.4C141.34 730.3109999999999 171.733 775.467 210.133 813.867C248.533 852.267 293.689 882.674 345.6 905.088C397.511 927.4738 452.978 938.6667 512 938.6667C542.578 938.6667 572.089 935.6516 600.533 929.6214C628.978 923.563 656.355 914.844 682.667 903.467V807.467C657.778 821.689 630.94 832.896 602.155 841.088C573.34 849.252 543.289 853.333 512 853.333C417.4220000000001 853.333 336.896 820.096 270.421 753.621C203.918 687.1179999999999 170.667 606.578 170.667 512C170.667 417.4220000000001 203.918 336.882 270.421 270.379C336.896 203.904 417.4220000000001 170.667 512 170.667C606.578 170.667 687.118 203.904 753.621 270.379C820.096 336.882 853.333 417.4220000000001 853.333 512C853.333 534.756 851.015 556.8 846.379 578.133C841.771 599.467 835.555 620.0889999999999 827.733 640H919.467C925.867 619.3779999999999 930.674 598.585 933.888 577.621C937.074 556.629 938.667 534.756 938.667 512C938.667 452.978 927.459 397.511 905.045 345.6C882.659 293.689 852.267 248.533 813.867 210.1330000000001C775.467 171.733 730.311 141.34 678.4 118.9550000000001C626.489 96.54 571.022 85.333 512 85.333zM661.333 554.6669999999999C679.822 554.6669999999999 695.111 560.711 707.2 572.8C719.289 584.889 725.333 600.178 725.333 618.6669999999999C725.333 637.156 719.289 652.444 707.2 664.533C695.111 676.6220000000001 679.822 682.6669999999999 661.333 682.6669999999999C642.844 682.6669999999999 627.555 676.6220000000001 615.467 664.533C603.378 652.444 597.333 637.156 597.333 618.6669999999999C597.333 600.178 603.378 584.889 615.467 572.8C627.555 560.711 642.844 554.6669999999999 661.333 554.6669999999999zM362.667 554.6669999999999C381.155 554.6669999999999 396.444 560.711 408.533 572.8C420.622 584.889 426.667 600.178 426.667 618.6669999999999C426.667 637.156 420.622 652.444 408.533 664.533C396.444 676.6220000000001 381.155 682.6669999999999 362.667 682.6669999999999C344.178 682.6669999999999 328.889 676.6220000000001 316.8 664.533C304.711 652.444 298.667 637.156 298.667 618.6669999999999C298.667 600.178 304.711 584.889 316.8 572.8C328.889 560.711 344.178 554.6669999999999 362.667 554.6669999999999zM512 277.333C562.489 277.333 607.104 291.2000000000001 645.845 318.933C684.615 346.6670000000001 712.533 382.578 729.6 426.6670000000001H294.4C311.467 382.578 339.385 346.6670000000001 378.155 318.933C416.896 291.2000000000001 461.511 277.333 512 277.333zM853.333 725.3330000000001V810.667H768V896H853.333V981.3334H938.667V896H1024V810.667H938.667V725.3330000000001H853.333z" />
    <glyph glyph-name="add-person"
      unicode="&#xE67A;"
      horiz-adv-x="1024" d="M726.744361 695.755224C636.9980895000001 695.755224 564.2443613300001 769.180525 564.2443613300001 859.755224C564.2443613300001 950.3299228 636.9980895000001 1023.755223881 726.744361 1023.755223881C816.4906330000001 1023.755223881 889.244361 950.3299228 889.244361 859.755224C889.244361 769.180525 816.4906330000001 695.755224 726.744361 695.755224zM726.7261820000001 686C890.9041930000001 686 1024 611.144997 1024 518.817265C1024 426.4895320000001 890.9041930000001 429.00673 726.7261820000001 429.00673C705.546861 429.00673 693.623811 429.00673 690.957032 429.00673C684.9960940000001 468.7262019999999 667.757813 509.057292 639.2421879000001 550C613.9932131 586.252455 586.9001701000001 616.387872 557.9630589999975 640.40625C595.7226043000001 667.3125 628.8360348000001 686 726.7261820000001 686zM342 648C510.999133 648 648 510.999133 648 342C648 173.000867 510.999133 36 342 36C173.000867 36 36 173.000867 36 342C36 510.999133 173.000867 648 342 648zM341.5 550C321.617749 550 305.5 533.882251 305.5 514L305.5 514L305.5 378L170 378C150.117749 378 134 361.882251 134 342C134 322.117749 150.117749 306 170 306L170 306L305.5 306L305.5 170C305.5 150.117749 321.617749 134 341.5 134C361.382251 134 377.5 150.117749 377.5 170L377.5 170L377.5 306L514 306C533.882251 306 550 322.117749 550 342C550 361.882251 533.882251 378 514 378L514 378L377.5 378L377.5 514C377.5 533.882251 361.382251 550 341.5 550z" />
    <glyph glyph-name="add-person-1"
      unicode="&#x61;&#x64;&#x64;&#x2D;&#x70;&#x65;&#x72;&#x73;&#x6F;&#x6E;"
      horiz-adv-x="1024" d="M726.744361 695.755224C636.9980895000001 695.755224 564.2443613300001 769.180525 564.2443613300001 859.755224C564.2443613300001 950.3299228 636.9980895000001 1023.755223881 726.744361 1023.755223881C816.4906330000001 1023.755223881 889.244361 950.3299228 889.244361 859.755224C889.244361 769.180525 816.4906330000001 695.755224 726.744361 695.755224zM726.7261820000001 686C890.9041930000001 686 1024 611.144997 1024 518.817265C1024 426.4895320000001 890.9041930000001 429.00673 726.7261820000001 429.00673C705.546861 429.00673 693.623811 429.00673 690.957032 429.00673C684.9960940000001 468.7262019999999 667.757813 509.057292 639.2421879000001 550C613.9932131 586.252455 586.9001701000001 616.387872 557.9630589999975 640.40625C595.7226043000001 667.3125 628.8360348000001 686 726.7261820000001 686zM342 648C510.999133 648 648 510.999133 648 342C648 173.000867 510.999133 36 342 36C173.000867 36 36 173.000867 36 342C36 510.999133 173.000867 648 342 648zM341.5 550C321.617749 550 305.5 533.882251 305.5 514L305.5 514L305.5 378L170 378C150.117749 378 134 361.882251 134 342C134 322.117749 150.117749 306 170 306L170 306L305.5 306L305.5 170C305.5 150.117749 321.617749 134 341.5 134C361.382251 134 377.5 150.117749 377.5 170L377.5 170L377.5 306L514 306C533.882251 306 550 322.117749 550 342C550 361.882251 533.882251 378 514 378L514 378L377.5 378L377.5 514C377.5 533.882251 361.382251 550 341.5 550z" />
    <glyph glyph-name="adjustment"
      unicode="&#xE67B;"
      horiz-adv-x="1024" d="M329 368C384.78076 368 430 322.78076 430 267L430 191C430 135.21924 384.78076 90 329 90C273.21924 90 228 135.21924 228 191L227.999 193.001L36 193C16.117749 193 7.3e-12 209.117749 7.3e-12 229C7.3e-12 248.882251 16.117749 265 36 265L227.999 265.001L228 267C228 322.78076 273.21924 368 329 368zM988 265C1007.88225 265 1024 248.882251 1024 229C1024 209.117749 1007.88225 193 988 193L484.198975 193L484.198975 265L988 265zM695 651C750.78076 651 796 605.78076 796 550L796 550L796 474C796 418.21924 750.78076 373 695 373C639.21924 373 594 418.21924 594 474L594 474L594.001 476.001L36 476C16.117749 476 7.3e-12 492.117749 7.3e-12 512C7.3e-12 531.882251 16.117749 548 36 548L36 548L594 548.001L594 550C594 605.78076 639.21924 651 695 651zM988 548C1007.88225 548 1024 531.882251 1024 512C1024 492.117749 1007.88225 476 988 476L988 476L852.881592 476L852.881592 548zM329 934C384.78076 934 430 888.78076 430 833L430 757C430 701.21924 384.78076 656 329 656C273.21924 656 228 701.21924 228 757L227.999 759.001L36 759C16.117749 759 7.3e-12 775.117749 7.3e-12 795C7.3e-12 814.882251 16.117749 831 36 831L227.999 831.001L228 833C228 888.78076 273.21924 934 329 934zM988 831C1007.88225 831 1024 814.882251 1024 795C1024 775.117749 1007.88225 759 988 759L484.198975 759L484.198975 831L988 831z" />
    <glyph glyph-name="adjustment-1"
      unicode="&#x61;&#x64;&#x6A;&#x75;&#x73;&#x74;&#x6D;&#x65;&#x6E;&#x74;"
      horiz-adv-x="1024" d="M329 368C384.78076 368 430 322.78076 430 267L430 191C430 135.21924 384.78076 90 329 90C273.21924 90 228 135.21924 228 191L227.999 193.001L36 193C16.117749 193 7.3e-12 209.117749 7.3e-12 229C7.3e-12 248.882251 16.117749 265 36 265L227.999 265.001L228 267C228 322.78076 273.21924 368 329 368zM988 265C1007.88225 265 1024 248.882251 1024 229C1024 209.117749 1007.88225 193 988 193L484.198975 193L484.198975 265L988 265zM695 651C750.78076 651 796 605.78076 796 550L796 550L796 474C796 418.21924 750.78076 373 695 373C639.21924 373 594 418.21924 594 474L594 474L594.001 476.001L36 476C16.117749 476 7.3e-12 492.117749 7.3e-12 512C7.3e-12 531.882251 16.117749 548 36 548L36 548L594 548.001L594 550C594 605.78076 639.21924 651 695 651zM988 548C1007.88225 548 1024 531.882251 1024 512C1024 492.117749 1007.88225 476 988 476L988 476L852.881592 476L852.881592 548zM329 934C384.78076 934 430 888.78076 430 833L430 757C430 701.21924 384.78076 656 329 656C273.21924 656 228 701.21924 228 757L227.999 759.001L36 759C16.117749 759 7.3e-12 775.117749 7.3e-12 795C7.3e-12 814.882251 16.117749 831 36 831L227.999 831.001L228 833C228 888.78076 273.21924 934 329 934zM988 831C1007.88225 831 1024 814.882251 1024 795C1024 775.117749 1007.88225 759 988 759L484.198975 759L484.198975 831L988 831z" />
    <glyph glyph-name="alignment"
      unicode="&#xE67C;"
      horiz-adv-x="1024" d="M42 688.5L309 688.5C332.195959 688.5 351 669.695959 351 646.5L351 379.5C351 356.304041 332.195959 337.5 309 337.5L42 337.5C18.8040405 337.5 0 356.304041 0 379.5L0 646.5C0 669.695959 18.8040405 688.5 42 688.5zM778 1024L982 1024C1005.19596 1024 1024 1005.1959595 1024 982L1024 778C1024 754.804041 1005.19596 736 982 736L778 736C754.804041 736 736 754.804041 736 778L736 982C736 1005.1959595 754.804041 1024 778 1024zM778 657L982 657C1005.19596 657 1024 638.195959 1024 615L1024 411C1024 387.804041 1005.19596 369 982 369L778 369C754.804041 369 736 387.804041 736 411L736 615C736 638.195959 754.804041 657 778 657zM778 288L982 288C1005.19596 288 1024 269.195959 1024 246L1024 42C1024 18.80404 1005.19596 0 982 0L778 0C754.804041 0 736 18.80404 736 42L736 246C736 269.195959 754.804041 288 778 288zM284 477L284 549L819.4883 549L819.4883 477zM880 172C899.882251 172 916 155.882251 916 136C916 116.117749 899.882251 100 880 100L678 100C618.353247 100 570 148.353247 570 208L570 808C570 867.646753 618.353247 916 678 916L880 916C899.882251 916 916 899.882251 916 880C916 860.117749 899.882251 844 880 844L678 844C658.117749 844 642 827.882251 642 808L642 208C642 188.117749 658.117749 172 678 172L880 172z" />
    <glyph glyph-name="alignment-1"
      unicode="&#x61;&#x6C;&#x69;&#x67;&#x6E;&#x6D;&#x65;&#x6E;&#x74;"
      horiz-adv-x="1024" d="M42 688.5L309 688.5C332.195959 688.5 351 669.695959 351 646.5L351 379.5C351 356.304041 332.195959 337.5 309 337.5L42 337.5C18.8040405 337.5 0 356.304041 0 379.5L0 646.5C0 669.695959 18.8040405 688.5 42 688.5zM778 1024L982 1024C1005.19596 1024 1024 1005.1959595 1024 982L1024 778C1024 754.804041 1005.19596 736 982 736L778 736C754.804041 736 736 754.804041 736 778L736 982C736 1005.1959595 754.804041 1024 778 1024zM778 657L982 657C1005.19596 657 1024 638.195959 1024 615L1024 411C1024 387.804041 1005.19596 369 982 369L778 369C754.804041 369 736 387.804041 736 411L736 615C736 638.195959 754.804041 657 778 657zM778 288L982 288C1005.19596 288 1024 269.195959 1024 246L1024 42C1024 18.80404 1005.19596 0 982 0L778 0C754.804041 0 736 18.80404 736 42L736 246C736 269.195959 754.804041 288 778 288zM284 477L284 549L819.4883 549L819.4883 477zM880 172C899.882251 172 916 155.882251 916 136C916 116.117749 899.882251 100 880 100L678 100C618.353247 100 570 148.353247 570 208L570 808C570 867.646753 618.353247 916 678 916L880 916C899.882251 916 916 899.882251 916 880C916 860.117749 899.882251 844 880 844L678 844C658.117749 844 642 827.882251 642 808L642 208C642 188.117749 658.117749 172 678 172L880 172z" />
    <glyph glyph-name="archive"
      unicode="&#xE67D;"
      horiz-adv-x="1024" d="M128 170.667V652.8C115.911 660.6220000000001 105.785 670.578 97.6214 682.6669999999999C89.4294 694.756 85.3334 708.9780000000001 85.3334 725.3330000000001V853.333C85.3334 876.8 93.696 896.896 110.421 913.621C127.118 930.3182 147.2 938.6667 170.667 938.6667H853.333C876.8 938.6667 896.896 930.3182 913.621 913.621C930.318 896.896 938.667 876.8 938.667 853.333V725.3330000000001C938.667 708.9780000000001 934.571 694.756 926.379 682.6669999999999C918.215 670.578 908.089 660.6220000000001 896 652.8V170.667C896 147.2000000000001 887.652 127.1040000000001 870.955 110.379C854.229 93.682 834.133 85.333 810.667 85.333H213.333C189.867 85.333 169.771 93.682 153.045 110.379C136.348 127.1040000000001 128 147.2000000000001 128 170.667zM853.333 725.3330000000001V853.333H170.667V725.3330000000001H853.333zM384 426.6670000000001H640V512H384V426.6670000000001z" />
    <glyph glyph-name="archive-1"
      unicode="&#x61;&#x72;&#x63;&#x68;&#x69;&#x76;&#x65;"
      horiz-adv-x="1024" d="M128 170.667V652.8C115.911 660.6220000000001 105.785 670.578 97.6214 682.6669999999999C89.4294 694.756 85.3334 708.9780000000001 85.3334 725.3330000000001V853.333C85.3334 876.8 93.696 896.896 110.421 913.621C127.118 930.3182 147.2 938.6667 170.667 938.6667H853.333C876.8 938.6667 896.896 930.3182 913.621 913.621C930.318 896.896 938.667 876.8 938.667 853.333V725.3330000000001C938.667 708.9780000000001 934.571 694.756 926.379 682.6669999999999C918.215 670.578 908.089 660.6220000000001 896 652.8V170.667C896 147.2000000000001 887.652 127.1040000000001 870.955 110.379C854.229 93.682 834.133 85.333 810.667 85.333H213.333C189.867 85.333 169.771 93.682 153.045 110.379C136.348 127.1040000000001 128 147.2000000000001 128 170.667zM853.333 725.3330000000001V853.333H170.667V725.3330000000001H853.333zM384 426.6670000000001H640V512H384V426.6670000000001z" />
    <glyph glyph-name="backward-arrow"
      unicode="&#xE67E;"
      horiz-adv-x="951" d="M475.569 51.875L556.666 132.972L235.7280000000001 454.486H935.696V569.518H235.7280000000001L556.666 891.034L475.5690000000001 972.127L15.4440000000001 512.002L475.5690000000001 51.875z" />
    <glyph glyph-name="backward-arrow-1"
      unicode="&#x62;&#x61;&#x63;&#x6B;&#x77;&#x61;&#x72;&#x64;&#x2D;&#x61;&#x72;&#x72;&#x6F;&#x77;"
      horiz-adv-x="951" d="M475.569 51.875L556.666 132.972L235.7280000000001 454.486H935.696V569.518H235.7280000000001L556.666 891.034L475.5690000000001 972.127L15.4440000000001 512.002L475.5690000000001 51.875z" />
    <glyph glyph-name="bank"
      unicode="&#xE67F;"
      horiz-adv-x="1024" d="M988 72C1007.88225 72 1024 55.882251 1024 36C1024 16.11775 1007.88225 0 988 0L36 0C16.117749 0 0 16.11775 0 36C0 55.882251 16.117749 72 36 72L988 72zM905.230469 170C925.11272 170 941.230469 153.882251 941.230469 134C941.230469 114.117749 925.11272 98 905.230469 98L120.029053 98C100.146802 98 84.0290527 114.117749 84.0290527 134C84.0290527 153.882251 100.146802 170 120.029053 170L905.230469 170zM574.431641 728.437103C594.313892 728.437103 610.431641 712.319354 610.431641 692.437103C610.431641 674.102704 596.72577 658.9694830000001 579.000921 656.724333L579.000788 271.3468420000001C597.684006 270.029458 612.431641 254.455528 612.431641 235.437103C612.431641 216.418678 597.684006 200.844748 579.000788 199.527364L579 199L442 199L442.000379 200.033837C425.251687 203.118707 412.562897 217.7960920000001 412.562897 235.437103C412.562897 253.0781140000001 425.251687 267.7555 442.000379 270.84037L442.000386 656.723476C424.272257 658.9656299999999 410.562897 674.100371 410.562897 692.437103C410.562897 712.319354 426.680646 728.437103 446.562897 728.437103L574.431641 728.437103zM247.431641 728.437103C267.313892 728.437103 283.431641 712.319354 283.431641 692.437103C283.431641 673.4183390000001 268.68348 657.844193 249.999788 656.527294L250.000788 271.3468420000001C268.684006 270.029458 283.431641 254.455528 283.431641 235.437103C283.431641 216.418678 268.684006 200.844748 250.000788 199.527364L250 199L113 199L113.000379 200.033837C96.2516873 203.118707 83.5628967 217.7960920000001 83.5628967 235.437103C83.5628967 253.0781140000001 96.2516873 267.7555 113.000379 270.84037L112.999377 657.0340209999999C96.2511811 660.119293 83.5628967 674.7964440000001 83.5628967 692.437103C83.5628967 712.319354 99.6806457 728.437103 119.562897 728.437103L247.431641 728.437103zM901.431641 728.437103C921.313892 728.437103 937.431641 712.319354 937.431641 692.437103C937.431641 673.418678 922.684006 657.844748 904.000788 656.527364L904.000788 271.3468420000001C922.684006 270.029458 937.431641 254.455528 937.431641 235.437103C937.431641 216.418678 922.684006 200.844748 904.000788 199.527364L904 199L767 199L767.000379 200.033837C750.251687 203.118707 737.562897 217.7960920000001 737.562897 235.437103C737.562897 253.0781140000001 750.251687 267.7555 767.000379 270.84037L767.000379 657.033837C750.251687 660.118707 737.562897 674.796092 737.562897 692.437103C737.562897 712.319354 753.680646 728.437103 773.562897 728.437103L901.431641 728.437103zM544.798873 1007.216202L946.429024 801.694523C956.753724 796.4111800000001 960.840552 783.758362 955.557209 773.433662C951.965882 766.4154960000001 944.746358 762 936.862686 762L87.1373136 762C75.5393338 762 66.1373136 771.40202 66.1373136 783C66.1373136 790.8836719999999 70.55281 798.103196 77.5709758 801.694523L479.201127 1007.216202C499.797059 1017.75552653 524.202941 1017.75552653 544.798873 1007.216202z" />
    <glyph glyph-name="bank-1"
      unicode="&#x62;&#x61;&#x6E;&#x6B;"
      horiz-adv-x="1024" d="M988 72C1007.88225 72 1024 55.882251 1024 36C1024 16.11775 1007.88225 0 988 0L36 0C16.117749 0 0 16.11775 0 36C0 55.882251 16.117749 72 36 72L988 72zM905.230469 170C925.11272 170 941.230469 153.882251 941.230469 134C941.230469 114.117749 925.11272 98 905.230469 98L120.029053 98C100.146802 98 84.0290527 114.117749 84.0290527 134C84.0290527 153.882251 100.146802 170 120.029053 170L905.230469 170zM574.431641 728.437103C594.313892 728.437103 610.431641 712.319354 610.431641 692.437103C610.431641 674.102704 596.72577 658.9694830000001 579.000921 656.724333L579.000788 271.3468420000001C597.684006 270.029458 612.431641 254.455528 612.431641 235.437103C612.431641 216.418678 597.684006 200.844748 579.000788 199.527364L579 199L442 199L442.000379 200.033837C425.251687 203.118707 412.562897 217.7960920000001 412.562897 235.437103C412.562897 253.0781140000001 425.251687 267.7555 442.000379 270.84037L442.000386 656.723476C424.272257 658.9656299999999 410.562897 674.100371 410.562897 692.437103C410.562897 712.319354 426.680646 728.437103 446.562897 728.437103L574.431641 728.437103zM247.431641 728.437103C267.313892 728.437103 283.431641 712.319354 283.431641 692.437103C283.431641 673.4183390000001 268.68348 657.844193 249.999788 656.527294L250.000788 271.3468420000001C268.684006 270.029458 283.431641 254.455528 283.431641 235.437103C283.431641 216.418678 268.684006 200.844748 250.000788 199.527364L250 199L113 199L113.000379 200.033837C96.2516873 203.118707 83.5628967 217.7960920000001 83.5628967 235.437103C83.5628967 253.0781140000001 96.2516873 267.7555 113.000379 270.84037L112.999377 657.0340209999999C96.2511811 660.119293 83.5628967 674.7964440000001 83.5628967 692.437103C83.5628967 712.319354 99.6806457 728.437103 119.562897 728.437103L247.431641 728.437103zM901.431641 728.437103C921.313892 728.437103 937.431641 712.319354 937.431641 692.437103C937.431641 673.418678 922.684006 657.844748 904.000788 656.527364L904.000788 271.3468420000001C922.684006 270.029458 937.431641 254.455528 937.431641 235.437103C937.431641 216.418678 922.684006 200.844748 904.000788 199.527364L904 199L767 199L767.000379 200.033837C750.251687 203.118707 737.562897 217.7960920000001 737.562897 235.437103C737.562897 253.0781140000001 750.251687 267.7555 767.000379 270.84037L767.000379 657.033837C750.251687 660.118707 737.562897 674.796092 737.562897 692.437103C737.562897 712.319354 753.680646 728.437103 773.562897 728.437103L901.431641 728.437103zM544.798873 1007.216202L946.429024 801.694523C956.753724 796.4111800000001 960.840552 783.758362 955.557209 773.433662C951.965882 766.4154960000001 944.746358 762 936.862686 762L87.1373136 762C75.5393338 762 66.1373136 771.40202 66.1373136 783C66.1373136 790.8836719999999 70.55281 798.103196 77.5709758 801.694523L479.201127 1007.216202C499.797059 1017.75552653 524.202941 1017.75552653 544.798873 1007.216202z" />
    <glyph glyph-name="bell"
      unicode="&#xE680;"
      horiz-adv-x="1024" d="M512 1C452.353247 1 404 49.353247 404 109C404 168.646753 452.353247 217 512 217C571.646753 217 620 168.646753 620 109C620 49.353247 571.646753 1 512 1zM512 73C531.882251 73 548 89.117749 548 109C548 128.882251 531.882251 145 512 145C492.117749 145 476 128.882251 476 109C476 89.117749 492.117749 73 512 73zM437.006724 952.9942313C437.538706 992.3004366 469.567438 1024 509 1024C548.012832 1024 579.7786120000001 992.9716809 580.9656110000001 954.2467714C742.349436 922.189062 864 779.801037 864 609C864 414.595768 706.404232 257 512 257C317.595768 257 160 414.595768 160 609C160 777.667957 278.631027 918.628153 437.006724 952.9942313zM232 659L792 659C831.764502 659 864 626.764502 864 587L864 181L160 181L160 587C160 626.764502 192.235498 659 232 659zM161 122C141.117749 122 125 138.117749 125 158C125 177.882251 141.117749 194 161 194L862.5 194C882.382251 194 898.5 177.882251 898.5 158C898.5 138.117749 882.382251 122 862.5 122L161 122z" />
    <glyph glyph-name="bell-1"
      unicode="&#x62;&#x65;&#x6C;&#x6C;"
      horiz-adv-x="1024" d="M512 1C452.353247 1 404 49.353247 404 109C404 168.646753 452.353247 217 512 217C571.646753 217 620 168.646753 620 109C620 49.353247 571.646753 1 512 1zM512 73C531.882251 73 548 89.117749 548 109C548 128.882251 531.882251 145 512 145C492.117749 145 476 128.882251 476 109C476 89.117749 492.117749 73 512 73zM437.006724 952.9942313C437.538706 992.3004366 469.567438 1024 509 1024C548.012832 1024 579.7786120000001 992.9716809 580.9656110000001 954.2467714C742.349436 922.189062 864 779.801037 864 609C864 414.595768 706.404232 257 512 257C317.595768 257 160 414.595768 160 609C160 777.667957 278.631027 918.628153 437.006724 952.9942313zM232 659L792 659C831.764502 659 864 626.764502 864 587L864 181L160 181L160 587C160 626.764502 192.235498 659 232 659zM161 122C141.117749 122 125 138.117749 125 158C125 177.882251 141.117749 194 161 194L862.5 194C882.382251 194 898.5 177.882251 898.5 158C898.5 138.117749 882.382251 122 862.5 122L161 122z" />
    <glyph glyph-name="billing"
      unicode="&#xE681;"
      horiz-adv-x="1024" d="M478.736505 554.6115689999999C479.965855 535.842823 495.578831 521 514.658534 521C534.011045 521 549.796984 536.270313 550.624442 555.419032C570.374475 560.1782989999999 587.102356 568.982664 600.269854 581.437498C618.528378 598.707817 628.354687 621.845947 628.354687 644.026104C628.354687 644.283637 628.354823 644.489606 628.355246 644.9767959999999C628.363844 654.85347 628.116515 660.0319870000001 626.726357 667.465207C624.634601 678.649895 620.310946 689.1073309999999 613.218744 698.811783C596.986928 721.022217 568.223722 736.637215 523.027666 748.5571709999999L522.660783 748.6539319999999L522.291942 748.74294C495.241169 755.270708 479.407605 762.614244 472.323058 769.583904C469.150026 772.70548 468.223918 775.329202 468.223918 781.91403L468.223918 782.043762L468.222983 782.173491C468.173019 789.105838 470.496965 794.93998 475.098632 799.239602C481.947779 805.639185 494.373255 809.873377 513.846995 809.873377C530.439592 809.873377 542.114456 804.766955 550.792351 796.152465C553.883254 793.084145 556.359018 789.751188 558.053627 786.68952C558.260068 786.316542 558.443539 785.966996 558.602262 785.647759C562.410348 769.851177 576.635045 758.11513 593.600841 758.11513C613.483092 758.11513 629.600841 774.232879 629.600841 794.11513C629.600841 809.700994 617.720417 831.165482 601.517024 847.250484C587.644881 861.0212710000001 570.569698 871.289496 550.658534 876.934422L550.658534 883C550.658534 902.882251 534.540785 919 514.658534 919C494.776283 919 478.658534 902.882251 478.658534 883L478.658534 878.3129690000001C457.66751 873.758662 439.879014 864.870044 425.942805 851.848581C406.125265 833.331826 396.068266 808.136508 396.2239850000001 781.787012C396.249677 757.210377 403.736592 736.056992 421.829241 718.257746C439.71831 700.658779 466.61943 688.1510880000001 505.015608 678.845456C522.153601 674.306507 534.985704 669.5039340000001 543.938162 664.643815C550.123828 661.285734 553.517486 658.477627 555.087973 656.328687C556.124229 654.910749 556.362757 653.635336 556.355273 645.039477C556.354839 644.5420819999999 556.354687 644.311589 556.354687 644.026104C556.354687 643.762153 556.306966 643.308586 556.187425 642.733236C556.021625 641.935239 555.748073 641.060565 555.363674 640.1554169999999C554.420326 637.9341039999999 552.917468 635.754162 550.793367 633.745023C544.171368 627.481426 532.476551 623.296454 513.846995 623.296454C496.577691 623.296454 484.869506 626.265626 476.612688 631.2339360000001C470.934968 634.650346 466.84496 638.918951 461.466891 646.5817930000001C450.04511 662.855908 427.593149 666.789501 411.319035 655.3677190000001C395.04492 643.9459380000001 391.111327 621.493978 402.533109 605.219863C413.176933 590.054207 423.764552 579.004261 439.490903 569.541367C451.010533 562.6097500000001 464.044679 557.606179 478.736505 554.6115689999999zM784.281781 1027C846.027521 1027 896.125884 977.0276791 896.281425 915.282135L898.480315 42.3846150000001C898.480315 28.737846 890.78176 16.056 878.150982 8.888C871.245871 4.98892 863.418649 3 855.591427 3C849.029427 3 842.467427 4.37846 836.398649 7.15508L769.813649 37.737231L703.207204 7.15508C691.155427 1.62154 676.894871 1.62154 664.843093 7.15508L598.258093 37.737231L531.651649 7.15508C519.578427 1.62154 505.36076 1.62154 493.287538 7.15508L426.702538 37.737231L360.096093 7.15508C348.022871 1.62154 333.805204 1.62154 321.731982 7.15508L255.146982 37.737231L188.561982 7.15508C175.266427 1.08985 159.461871 1.72 146.831093 8.888C134.178871 16.056 126.480315 28.737846 126.480315 42.3846150000001L127.827403 915.172864C127.922769 976.9611855 178.038874 1027 239.827269 1027L784.281781 1027zM320 368L705 368C724.882251 368 741 384.117749 741 404C741 423.882251 724.882251 440 705 440L320 440C300.117749 440 284 423.882251 284 404C284 384.117749 300.117749 368 320 368zM320 224.5L705 224.5C724.882251 224.5 741 240.617749 741 260.5C741 280.382251 724.882251 296.5 705 296.5L320 296.5C300.117749 296.5 284 280.382251 284 260.5C284 240.617749 300.117749 224.5 320 224.5z" />
    <glyph glyph-name="billing-1"
      unicode="&#x62;&#x69;&#x6C;&#x6C;&#x69;&#x6E;&#x67;"
      horiz-adv-x="1024" d="M478.736505 554.6115689999999C479.965855 535.842823 495.578831 521 514.658534 521C534.011045 521 549.796984 536.270313 550.624442 555.419032C570.374475 560.1782989999999 587.102356 568.982664 600.269854 581.437498C618.528378 598.707817 628.354687 621.845947 628.354687 644.026104C628.354687 644.283637 628.354823 644.489606 628.355246 644.9767959999999C628.363844 654.85347 628.116515 660.0319870000001 626.726357 667.465207C624.634601 678.649895 620.310946 689.1073309999999 613.218744 698.811783C596.986928 721.022217 568.223722 736.637215 523.027666 748.5571709999999L522.660783 748.6539319999999L522.291942 748.74294C495.241169 755.270708 479.407605 762.614244 472.323058 769.583904C469.150026 772.70548 468.223918 775.329202 468.223918 781.91403L468.223918 782.043762L468.222983 782.173491C468.173019 789.105838 470.496965 794.93998 475.098632 799.239602C481.947779 805.639185 494.373255 809.873377 513.846995 809.873377C530.439592 809.873377 542.114456 804.766955 550.792351 796.152465C553.883254 793.084145 556.359018 789.751188 558.053627 786.68952C558.260068 786.316542 558.443539 785.966996 558.602262 785.647759C562.410348 769.851177 576.635045 758.11513 593.600841 758.11513C613.483092 758.11513 629.600841 774.232879 629.600841 794.11513C629.600841 809.700994 617.720417 831.165482 601.517024 847.250484C587.644881 861.0212710000001 570.569698 871.289496 550.658534 876.934422L550.658534 883C550.658534 902.882251 534.540785 919 514.658534 919C494.776283 919 478.658534 902.882251 478.658534 883L478.658534 878.3129690000001C457.66751 873.758662 439.879014 864.870044 425.942805 851.848581C406.125265 833.331826 396.068266 808.136508 396.2239850000001 781.787012C396.249677 757.210377 403.736592 736.056992 421.829241 718.257746C439.71831 700.658779 466.61943 688.1510880000001 505.015608 678.845456C522.153601 674.306507 534.985704 669.5039340000001 543.938162 664.643815C550.123828 661.285734 553.517486 658.477627 555.087973 656.328687C556.124229 654.910749 556.362757 653.635336 556.355273 645.039477C556.354839 644.5420819999999 556.354687 644.311589 556.354687 644.026104C556.354687 643.762153 556.306966 643.308586 556.187425 642.733236C556.021625 641.935239 555.748073 641.060565 555.363674 640.1554169999999C554.420326 637.9341039999999 552.917468 635.754162 550.793367 633.745023C544.171368 627.481426 532.476551 623.296454 513.846995 623.296454C496.577691 623.296454 484.869506 626.265626 476.612688 631.2339360000001C470.934968 634.650346 466.84496 638.918951 461.466891 646.5817930000001C450.04511 662.855908 427.593149 666.789501 411.319035 655.3677190000001C395.04492 643.9459380000001 391.111327 621.493978 402.533109 605.219863C413.176933 590.054207 423.764552 579.004261 439.490903 569.541367C451.010533 562.6097500000001 464.044679 557.606179 478.736505 554.6115689999999zM784.281781 1027C846.027521 1027 896.125884 977.0276791 896.281425 915.282135L898.480315 42.3846150000001C898.480315 28.737846 890.78176 16.056 878.150982 8.888C871.245871 4.98892 863.418649 3 855.591427 3C849.029427 3 842.467427 4.37846 836.398649 7.15508L769.813649 37.737231L703.207204 7.15508C691.155427 1.62154 676.894871 1.62154 664.843093 7.15508L598.258093 37.737231L531.651649 7.15508C519.578427 1.62154 505.36076 1.62154 493.287538 7.15508L426.702538 37.737231L360.096093 7.15508C348.022871 1.62154 333.805204 1.62154 321.731982 7.15508L255.146982 37.737231L188.561982 7.15508C175.266427 1.08985 159.461871 1.72 146.831093 8.888C134.178871 16.056 126.480315 28.737846 126.480315 42.3846150000001L127.827403 915.172864C127.922769 976.9611855 178.038874 1027 239.827269 1027L784.281781 1027zM320 368L705 368C724.882251 368 741 384.117749 741 404C741 423.882251 724.882251 440 705 440L320 440C300.117749 440 284 423.882251 284 404C284 384.117749 300.117749 368 320 368zM320 224.5L705 224.5C724.882251 224.5 741 240.617749 741 260.5C741 280.382251 724.882251 296.5 705 296.5L320 296.5C300.117749 296.5 284 280.382251 284 260.5C284 240.617749 300.117749 224.5 320 224.5z" />
    <glyph glyph-name="bookmark"
      unicode="&#xE682;"
      horiz-adv-x="1024" d="M229.587302 1024.0000000000002C222.5714286 1024.0000000000002 215.765379 1023.269343492 209.1507911 1021.91666794C162.8487111 1012.4479187 128 971.5238095 128 922.412698L127.9999999999999 25.133502C127.9999999999998 11.8786700000001 138.745166 1.1335 152 1.1335C155.3895793 1.1335 158.740715 1.85149 161.8327607 3.2402L512 160.507937L866.251812 3.0459499999999C878.36402 -2.33782 892.547317 3.11665 897.931093 15.2288600000001C899.295173 18.2977100000001 900 21.61869 900 24.977047L900 919.412698C900 926.3968254 899.275784 933.2519822 897.916648 939.8492089C889.800584 979.536706 858.536686 1010.8005943 818.849219 1018.91666794C812.234616 1020.26934349 805.428571 1021 798.412698 1021L229.587302 1024.0000000000002z" />
    <glyph glyph-name="bookmark-1"
      unicode="&#x62;&#x6F;&#x6F;&#x6B;&#x6D;&#x61;&#x72;&#x6B;"
      horiz-adv-x="1024" d="M229.587302 1024.0000000000002C222.5714286 1024.0000000000002 215.765379 1023.269343492 209.1507911 1021.91666794C162.8487111 1012.4479187 128 971.5238095 128 922.412698L127.9999999999999 25.133502C127.9999999999998 11.8786700000001 138.745166 1.1335 152 1.1335C155.3895793 1.1335 158.740715 1.85149 161.8327607 3.2402L512 160.507937L866.251812 3.0459499999999C878.36402 -2.33782 892.547317 3.11665 897.931093 15.2288600000001C899.295173 18.2977100000001 900 21.61869 900 24.977047L900 919.412698C900 926.3968254 899.275784 933.2519822 897.916648 939.8492089C889.800584 979.536706 858.536686 1010.8005943 818.849219 1018.91666794C812.234616 1020.26934349 805.428571 1021 798.412698 1021L229.587302 1024.0000000000002z" />
    <glyph glyph-name="box-check"
      unicode="&#xE683;"
      horiz-adv-x="1024" d="M1003.6202 1002.1932373C1002.3509 1001.2245612 1001.13127 1000.1601488 999.971124 999L405 402.9116880000001L238.455844 569.4558440000001C224.39697 583.514719 201.60303 583.514719 187.544156 569.4558440000001C173.485281 555.39697 173.485281 532.60303 187.544156 518.5441559999999L379.544156 326.5441560000001C393.60303 312.485281 416.39697 312.485281 430.455844 326.5441560000001L1024 921.157092L1024 112C1024 50.144108 973.855892 0 912 0L112 0C50.144108 0 0 50.144108 0 112L0 912C0 973.855892 50.144108 1024 112 1024L952 1024C972.245173 1024 990.538752 1015.64423387 1003.6202 1002.1932373z" />
    <glyph glyph-name="box-check-1"
      unicode="&#x62;&#x6F;&#x78;&#x2D;&#x63;&#x68;&#x65;&#x63;&#x6B;"
      horiz-adv-x="1024" d="M1003.6202 1002.1932373C1002.3509 1001.2245612 1001.13127 1000.1601488 999.971124 999L405 402.9116880000001L238.455844 569.4558440000001C224.39697 583.514719 201.60303 583.514719 187.544156 569.4558440000001C173.485281 555.39697 173.485281 532.60303 187.544156 518.5441559999999L379.544156 326.5441560000001C393.60303 312.485281 416.39697 312.485281 430.455844 326.5441560000001L1024 921.157092L1024 112C1024 50.144108 973.855892 0 912 0L112 0C50.144108 0 0 50.144108 0 112L0 912C0 973.855892 50.144108 1024 112 1024L952 1024C972.245173 1024 990.538752 1015.64423387 1003.6202 1002.1932373z" />
    <glyph glyph-name="box"
      unicode="&#xE684;"
      horiz-adv-x="1024" d="M156.444444 1024L867.555556 1024C887.778225 1023.9891840272 906.475322 1013.2446942 916.666652 995.7777749L1016.22221 825.1111080000001C1021.30742 816.412826 1023.99149 806.520127 1024 796.444444L1024 112C1024 50.144108 973.855892 0 912 0L118.689371 0C57.2601706 0 7.29457702 49.4800310000001 6.69471087 110.906302L0 796.444444C0.00851066387 806.520126 2.69257751 816.412825 7.77778062 825.1111080000001L107.333336 995.7777749C117.524669 1013.2446977 136.221771 1023.9891880705 156.444444 1024zM189.111114 910.222222L122.777776 796.444444L901.222229 796.444444L834.888875 910.222222L189.111114 910.222222zM358.333333 610.666667L665 610.666667C684.882251 610.666667 701 626.784416 701 646.666667C701 666.548918 684.882251 682.666667 665 682.666667L358.333333 682.666667C338.451082 682.666667 322.333333 666.548918 322.333333 646.666667C322.333333 626.784416 338.451082 610.666667 358.333333 610.666667z" />
    <glyph glyph-name="box-1"
      unicode="&#x62;&#x6F;&#x78;"
      horiz-adv-x="1024" d="M156.444444 1024L867.555556 1024C887.778225 1023.9891840272 906.475322 1013.2446942 916.666652 995.7777749L1016.22221 825.1111080000001C1021.30742 816.412826 1023.99149 806.520127 1024 796.444444L1024 112C1024 50.144108 973.855892 0 912 0L118.689371 0C57.2601706 0 7.29457702 49.4800310000001 6.69471087 110.906302L0 796.444444C0.00851066387 806.520126 2.69257751 816.412825 7.77778062 825.1111080000001L107.333336 995.7777749C117.524669 1013.2446977 136.221771 1023.9891880705 156.444444 1024zM189.111114 910.222222L122.777776 796.444444L901.222229 796.444444L834.888875 910.222222L189.111114 910.222222zM358.333333 610.666667L665 610.666667C684.882251 610.666667 701 626.784416 701 646.666667C701 666.548918 684.882251 682.666667 665 682.666667L358.333333 682.666667C338.451082 682.666667 322.333333 666.548918 322.333333 646.666667C322.333333 626.784416 338.451082 610.666667 358.333333 610.666667z" />
    <glyph glyph-name="buildings"
      unicode="&#xE685;"
      horiz-adv-x="1024" d="M71.93 687.409C32.204 687.409 0 655.2049999999999 0 615.479V0H328.671V615.479C328.671 655.205 296.467 687.4090000000001 256.741 687.4090000000001H71.93zM706.596 1024C666.87 1024 634.665 991.796 634.665 952.07V554.585H642.6619999999999C682.3879999999999 554.585 714.593 522.381 714.593 482.6569999999999V0H1024C1024 317.358 1024 634.714 1024 952.07C1024 991.796 991.795 1024 952.069 1024H706.596zM695.869 939.253H750.633V880.232H695.869V939.253zM800.497 939.253H855.261V880.232H800.497V939.253zM905.119 939.253H959.883V880.232H905.119V939.253zM695.869 809.056H750.633V750.0509999999999H695.869V809.056zM800.497 809.056H855.261V750.0509999999999H800.497V809.056zM905.119 809.056H959.883V750.0509999999999H905.119V809.056zM695.869 678.86H750.633V619.8710000000001H695.869V678.86zM800.497 678.86H855.261V619.8710000000001H800.497V678.86zM905.119 678.86H959.883V619.8710000000001H905.119V678.86zM800.497 548.044H855.261V489.037H800.497V548.0440000000001zM905.119 548.044H959.883V489.037H905.119V548.0440000000001zM800.497 417.213H855.261V358.205H800.497V417.213zM905.119 417.213H959.883V358.205H905.119V417.213zM800.497 286.377H855.261V227.3739999999999H800.497V286.377zM905.119 286.377H959.883V227.3739999999999H905.119V286.377zM685.384 452.116C685.384 491.842 653.179 524.047 613.453 524.047H428.659C388.933 524.047 356.729 491.842 356.729 452.116V0H685.383V452.116zM389.067 421.7140000000001H443.8V362.7260000000001H389.067V421.7140000000002zM493.691 421.7140000000001H548.439V362.7260000000001H493.691V421.7140000000002zM598.313 421.7140000000001H653.061V362.7260000000001H598.313V421.7140000000002zM389.067 291.5170000000001H443.8V232.514H389.067V291.5170000000001zM493.691 291.5170000000001H548.439V232.514H493.691V291.5170000000001zM598.313 291.5170000000001H653.061V232.514H598.313V291.5170000000001zM389.067 161.321H443.8V102.3330000000001H389.067V161.3210000000002zM493.691 161.321H548.439V102.3330000000001H493.691V161.3210000000002zM598.313 161.321H653.061V102.3330000000001H598.313V161.3210000000002zM36.98 589.2339999999999H91.728V530.213H36.98V589.2339999999999zM141.604 589.2339999999999H196.352V530.213H141.604V589.2339999999999zM246.228 589.2339999999999H300.976V530.213H246.228V589.2339999999999zM36.98 459.039H91.728V400.031H36.98V459.039zM141.604 459.039H196.352V400.031H141.604V459.039zM246.228 459.039H300.976V400.031H246.228V459.039zM36.98 328.858H91.728V269.8549999999999H36.98V328.858zM141.604 328.858H196.352V269.8549999999999H141.604V328.858zM246.228 328.858H300.976V269.8549999999999H246.228V328.858z" />
    <glyph glyph-name="buildings-1"
      unicode="&#x62;&#x75;&#x69;&#x6C;&#x64;&#x69;&#x6E;&#x67;&#x73;"
      horiz-adv-x="1024" d="M71.93 687.409C32.204 687.409 0 655.2049999999999 0 615.479V0H328.671V615.479C328.671 655.205 296.467 687.4090000000001 256.741 687.4090000000001H71.93zM706.596 1024C666.87 1024 634.665 991.796 634.665 952.07V554.585H642.6619999999999C682.3879999999999 554.585 714.593 522.381 714.593 482.6569999999999V0H1024C1024 317.358 1024 634.714 1024 952.07C1024 991.796 991.795 1024 952.069 1024H706.596zM695.869 939.253H750.633V880.232H695.869V939.253zM800.497 939.253H855.261V880.232H800.497V939.253zM905.119 939.253H959.883V880.232H905.119V939.253zM695.869 809.056H750.633V750.0509999999999H695.869V809.056zM800.497 809.056H855.261V750.0509999999999H800.497V809.056zM905.119 809.056H959.883V750.0509999999999H905.119V809.056zM695.869 678.86H750.633V619.8710000000001H695.869V678.86zM800.497 678.86H855.261V619.8710000000001H800.497V678.86zM905.119 678.86H959.883V619.8710000000001H905.119V678.86zM800.497 548.044H855.261V489.037H800.497V548.0440000000001zM905.119 548.044H959.883V489.037H905.119V548.0440000000001zM800.497 417.213H855.261V358.205H800.497V417.213zM905.119 417.213H959.883V358.205H905.119V417.213zM800.497 286.377H855.261V227.3739999999999H800.497V286.377zM905.119 286.377H959.883V227.3739999999999H905.119V286.377zM685.384 452.116C685.384 491.842 653.179 524.047 613.453 524.047H428.659C388.933 524.047 356.729 491.842 356.729 452.116V0H685.383V452.116zM389.067 421.7140000000001H443.8V362.7260000000001H389.067V421.7140000000002zM493.691 421.7140000000001H548.439V362.7260000000001H493.691V421.7140000000002zM598.313 421.7140000000001H653.061V362.7260000000001H598.313V421.7140000000002zM389.067 291.5170000000001H443.8V232.514H389.067V291.5170000000001zM493.691 291.5170000000001H548.439V232.514H493.691V291.5170000000001zM598.313 291.5170000000001H653.061V232.514H598.313V291.5170000000001zM389.067 161.321H443.8V102.3330000000001H389.067V161.3210000000002zM493.691 161.321H548.439V102.3330000000001H493.691V161.3210000000002zM598.313 161.321H653.061V102.3330000000001H598.313V161.3210000000002zM36.98 589.2339999999999H91.728V530.213H36.98V589.2339999999999zM141.604 589.2339999999999H196.352V530.213H141.604V589.2339999999999zM246.228 589.2339999999999H300.976V530.213H246.228V589.2339999999999zM36.98 459.039H91.728V400.031H36.98V459.039zM141.604 459.039H196.352V400.031H141.604V459.039zM246.228 459.039H300.976V400.031H246.228V459.039zM36.98 328.858H91.728V269.8549999999999H36.98V328.858zM141.604 328.858H196.352V269.8549999999999H141.604V328.858zM246.228 328.858H300.976V269.8549999999999H246.228V328.858z" />
    <glyph glyph-name="cake"
      unicode="&#xE686;"
      horiz-adv-x="1024" d="M375.513 866.763L375.5 725.556H470.375L470.4 866.763H528L527.974 725.556H623.974L624 866.763H681.6L681.5740000000001 725.556L712.2890000000001 725.5250000000001C761.7740000000001 725.5250000000001 801.8890000000001 684.857 801.8890000000001 634.687V574.665C801.8890000000001 562.605 799.5700000000002 551.094 795.3610000000001 540.565L832.0000000000001 540.602C881.4850000000001 540.602 921.6000000000003 499.9309999999999 921.6000000000003 449.76V91.268C921.6000000000003 41.097 881.4850000000001 0.4290000000001 832.0000000000001 0.4290000000001L803.8810000000001 0.388C801.0140000000001 0.1320000000001 798.1160000000001 -0.001 795.1920000000001 -0.001H223.9510000000001C221.0270000000001 -0.001 218.1300000000002 0.1320000000001 215.2570000000002 0.393L192.0010000000002 0.429C142.5160000000001 0.429 102.4010000000002 41.097 102.4010000000002 91.268V449.76C102.4010000000002 499.931 142.5160000000002 540.602 192.0010000000002 540.602L208.1260000000002 540.565C203.9170000000002 551.094 201.6010000000002 562.605 201.6010000000002 574.665V634.687C201.6010000000002 684.856 241.7160000000002 725.525 291.2010000000002 725.525L317.9010000000001 725.556L317.9140000000001 866.7629999999999H375.5140000000001zM832 482.207H192.001C174.328 482.207 160.001 467.682 160.001 449.762L159.964 379.157C213.779 414.2599999999999 276.391 408.843 342.514 362.522C366.326 345.8409999999999 388.7390000000001 336.0669999999999 409.814 332.171C427.396 328.915 443.8110000000001 329.79 459.295 334.127C472.12 337.716 483.969 343.584 494.733 351.12C502.293 356.414 508.574 361.98 513.579 367.274L514.127 367.8630000000001C535.5899999999999 390.908 574.016 409.6520000000001 615.078 415.5610000000001C665.433 422.8110000000001 716.485 411.1890000000001 761.52 377.8620000000001C784.847 360.5970000000001 804.8249999999999 353.2300000000002 821.547 354.3250000000001C835.991 355.2720000000001 849.927 362.7370000000001 863.946 378.1280000000001L864.0020000000001 449.7620000000001C864.0020000000001 467.682 849.676 482.2070000000001 832.0020000000001 482.2070000000001zM497.656 1024C512.676 1005.682 537.712 975.151 537.712 952.762C537.712 927.32 519.684 906.965 497.656 906.965C475.626 906.965 457.6 927.32 457.6 952.762C457.6 976.169 481.634 1004.664 497.656 1024zM651.254 1024C666.2760000000001 1005.682 691.313 975.151 691.313 952.762C691.313 927.32 673.285 906.965 651.254 906.965C629.2280000000001 906.965 611.2 927.32 611.2 952.762C611.2 976.169 635.2330000000001 1004.664 651.254 1024zM347.256 1024C362.277 1005.682 387.312 975.151 387.312 952.762C387.312 927.32 369.286 906.965 347.256 906.965S307.2 927.32 307.2 952.762C307.2 976.169 331.234 1004.664 347.256 1024z" />
    <glyph glyph-name="cake-1"
      unicode="&#x63;&#x61;&#x6B;&#x65;"
      horiz-adv-x="1024" d="M375.513 866.763L375.5 725.556H470.375L470.4 866.763H528L527.974 725.556H623.974L624 866.763H681.6L681.5740000000001 725.556L712.2890000000001 725.5250000000001C761.7740000000001 725.5250000000001 801.8890000000001 684.857 801.8890000000001 634.687V574.665C801.8890000000001 562.605 799.5700000000002 551.094 795.3610000000001 540.565L832.0000000000001 540.602C881.4850000000001 540.602 921.6000000000003 499.9309999999999 921.6000000000003 449.76V91.268C921.6000000000003 41.097 881.4850000000001 0.4290000000001 832.0000000000001 0.4290000000001L803.8810000000001 0.388C801.0140000000001 0.1320000000001 798.1160000000001 -0.001 795.1920000000001 -0.001H223.9510000000001C221.0270000000001 -0.001 218.1300000000002 0.1320000000001 215.2570000000002 0.393L192.0010000000002 0.429C142.5160000000001 0.429 102.4010000000002 41.097 102.4010000000002 91.268V449.76C102.4010000000002 499.931 142.5160000000002 540.602 192.0010000000002 540.602L208.1260000000002 540.565C203.9170000000002 551.094 201.6010000000002 562.605 201.6010000000002 574.665V634.687C201.6010000000002 684.856 241.7160000000002 725.525 291.2010000000002 725.525L317.9010000000001 725.556L317.9140000000001 866.7629999999999H375.5140000000001zM832 482.207H192.001C174.328 482.207 160.001 467.682 160.001 449.762L159.964 379.157C213.779 414.2599999999999 276.391 408.843 342.514 362.522C366.326 345.8409999999999 388.7390000000001 336.0669999999999 409.814 332.171C427.396 328.915 443.8110000000001 329.79 459.295 334.127C472.12 337.716 483.969 343.584 494.733 351.12C502.293 356.414 508.574 361.98 513.579 367.274L514.127 367.8630000000001C535.5899999999999 390.908 574.016 409.6520000000001 615.078 415.5610000000001C665.433 422.8110000000001 716.485 411.1890000000001 761.52 377.8620000000001C784.847 360.5970000000001 804.8249999999999 353.2300000000002 821.547 354.3250000000001C835.991 355.2720000000001 849.927 362.7370000000001 863.946 378.1280000000001L864.0020000000001 449.7620000000001C864.0020000000001 467.682 849.676 482.2070000000001 832.0020000000001 482.2070000000001zM497.656 1024C512.676 1005.682 537.712 975.151 537.712 952.762C537.712 927.32 519.684 906.965 497.656 906.965C475.626 906.965 457.6 927.32 457.6 952.762C457.6 976.169 481.634 1004.664 497.656 1024zM651.254 1024C666.2760000000001 1005.682 691.313 975.151 691.313 952.762C691.313 927.32 673.285 906.965 651.254 906.965C629.2280000000001 906.965 611.2 927.32 611.2 952.762C611.2 976.169 635.2330000000001 1004.664 651.254 1024zM347.256 1024C362.277 1005.682 387.312 975.151 387.312 952.762C387.312 927.32 369.286 906.965 347.256 906.965S307.2 927.32 307.2 952.762C307.2 976.169 331.234 1004.664 347.256 1024z" />
    <glyph glyph-name="calendar-clock"
      unicode="&#xE687;"
      horiz-adv-x="1024" d="M809.19 426.251C927.828 426.251 1024 330.829 1024 213.124S927.828 0 809.19 0C690.556 0 594.384 95.419 594.384 213.124S690.556 426.251 809.19 426.251zM267.8690000000001 1024C303.396 1024 332.1960000000001 995.202 332.1960000000001 959.675V936.556L332.0320000000001 933.787L686.5050000000001 933.75C686.4650000000001 934.694 686.4430000000001 935.645 686.4430000000001 936.6V959.675C686.4430000000001 995.202 715.243 1024 750.772 1024H769.325C804.854 1024 833.654 995.202 833.654 959.675V936.6L833.486 933.787L866.309 933.737C939.265 933.737 998.544 875.643 999.722 803.537L999.74 801.3489999999999V385.1990000000001C990.078 400.1200000000001 979.227 412.7630000000001 967.188 423.1380000000001C955.149 433.51 941.738 441.4310000000001 926.959 446.898L926.926 672.974H72.756L72.782 202.5940000000001C72.782 169.691 99.396 142.9570000000001 132.43 142.423L556.976 142.419C559.09 129.348 563.478 116.739 570.145 104.579C576.812 92.423 585.6179999999999 80.9649999999999 596.572 70.2059999999999H133.433C60.477 70.2059999999999 1.196 128.3 0.018 200.4079999999999L0.001 801.3499999999999C0.001 873.7349999999999 58.552 932.55 131.228 933.719L133.434 933.738L185.05 933.732C185.009 934.6689999999998 184.989 935.6099999999998 184.989 936.557V959.676C184.989 995.203 213.789 1024.001 249.316 1024.001H267.871zM809.19 354.0370000000001C730.7520000000001 354.0370000000001 667.1690000000001 290.9480000000001 667.1690000000001 213.124S730.7520000000001 72.2140000000001 809.19 72.2140000000001C887.6320000000001 72.2140000000001 951.219 135.3000000000001 951.219 213.124S887.6320000000001 354.0370000000001 809.19 354.0370000000001zM804.612 321.3490000000001C824.43 321.5170000000001 840.543 305.7440000000001 840.876 286.0060000000001L840.88 285.4060000000001L841.165 205.874L866.0519999999999 181.042C879.7959999999999 166.871 879.5869999999999 144.321 865.4739999999999 130.405C851.218 116.347 828.1779999999999 116.416 814.011 130.562L780.435 164.087C777.1469999999999 167.477 774.6569999999999 171.346 772.967 175.461C770.338 180.087 768.794 185.5 768.6949999999999 191.461L768.732 194.072L768.385 284.791C768.374 304.81 784.593 321.18 804.6129999999999 321.348zM228.708 369.083C246.433 369.083 260.802 354.714 260.802 336.988V280.825C260.802 263.099 246.433 248.7299999999999 228.7080000000001 248.7299999999999H167.549C149.8240000000001 248.7299999999999 135.4550000000001 263.099 135.4550000000001 280.825V336.988C135.4550000000001 354.714 149.8240000000001 369.083 167.549 369.083H228.7080000000001zM540.05 369.083C557.776 369.083 572.145 354.714 572.145 336.988V280.825C572.145 263.099 557.776 248.7299999999999 540.05 248.7299999999999H478.895C461.169 248.7299999999999 446.8 263.099 446.8 280.825V336.988C446.8 354.714 461.169 369.083 478.895 369.083H540.05zM228.708 605.7760000000001C246.433 605.7760000000001 260.802 591.407 260.802 573.681V517.518C260.802 499.792 246.433 485.423 228.7080000000001 485.423H167.549C149.8240000000001 485.423 135.4550000000001 499.792 135.4550000000001 517.518V573.681C135.4550000000001 591.407 149.8240000000001 605.7760000000001 167.549 605.7760000000001H228.7080000000001zM540.05 605.7760000000001C557.776 605.7760000000001 572.145 591.407 572.145 573.681V517.518C572.145 499.792 557.776 485.423 540.05 485.423H478.895C461.169 485.423 446.8 499.792 446.8 517.518V573.681C446.8 591.407 461.169 605.7760000000001 478.895 605.7760000000001H540.05zM851.397 605.7760000000001C869.123 605.7760000000001 883.488 591.407 883.488 573.681V517.518C883.488 499.792 869.123 485.423 851.397 485.423H790.239C772.513 485.423 758.144 499.792 758.144 517.518V573.681C758.144 591.407 772.513 605.7760000000001 790.239 605.7760000000001H851.397z" />
    <glyph glyph-name="calendar-clock-1"
      unicode="&#x63;&#x61;&#x6C;&#x65;&#x6E;&#x64;&#x61;&#x72;&#x2D;&#x63;&#x6C;&#x6F;&#x63;&#x6B;"
      horiz-adv-x="1024" d="M809.19 426.251C927.828 426.251 1024 330.829 1024 213.124S927.828 0 809.19 0C690.556 0 594.384 95.419 594.384 213.124S690.556 426.251 809.19 426.251zM267.8690000000001 1024C303.396 1024 332.1960000000001 995.202 332.1960000000001 959.675V936.556L332.0320000000001 933.787L686.5050000000001 933.75C686.4650000000001 934.694 686.4430000000001 935.645 686.4430000000001 936.6V959.675C686.4430000000001 995.202 715.243 1024 750.772 1024H769.325C804.854 1024 833.654 995.202 833.654 959.675V936.6L833.486 933.787L866.309 933.737C939.265 933.737 998.544 875.643 999.722 803.537L999.74 801.3489999999999V385.1990000000001C990.078 400.1200000000001 979.227 412.7630000000001 967.188 423.1380000000001C955.149 433.51 941.738 441.4310000000001 926.959 446.898L926.926 672.974H72.756L72.782 202.5940000000001C72.782 169.691 99.396 142.9570000000001 132.43 142.423L556.976 142.419C559.09 129.348 563.478 116.739 570.145 104.579C576.812 92.423 585.6179999999999 80.9649999999999 596.572 70.2059999999999H133.433C60.477 70.2059999999999 1.196 128.3 0.018 200.4079999999999L0.001 801.3499999999999C0.001 873.7349999999999 58.552 932.55 131.228 933.719L133.434 933.738L185.05 933.732C185.009 934.6689999999998 184.989 935.6099999999998 184.989 936.557V959.676C184.989 995.203 213.789 1024.001 249.316 1024.001H267.871zM809.19 354.0370000000001C730.7520000000001 354.0370000000001 667.1690000000001 290.9480000000001 667.1690000000001 213.124S730.7520000000001 72.2140000000001 809.19 72.2140000000001C887.6320000000001 72.2140000000001 951.219 135.3000000000001 951.219 213.124S887.6320000000001 354.0370000000001 809.19 354.0370000000001zM804.612 321.3490000000001C824.43 321.5170000000001 840.543 305.7440000000001 840.876 286.0060000000001L840.88 285.4060000000001L841.165 205.874L866.0519999999999 181.042C879.7959999999999 166.871 879.5869999999999 144.321 865.4739999999999 130.405C851.218 116.347 828.1779999999999 116.416 814.011 130.562L780.435 164.087C777.1469999999999 167.477 774.6569999999999 171.346 772.967 175.461C770.338 180.087 768.794 185.5 768.6949999999999 191.461L768.732 194.072L768.385 284.791C768.374 304.81 784.593 321.18 804.6129999999999 321.348zM228.708 369.083C246.433 369.083 260.802 354.714 260.802 336.988V280.825C260.802 263.099 246.433 248.7299999999999 228.7080000000001 248.7299999999999H167.549C149.8240000000001 248.7299999999999 135.4550000000001 263.099 135.4550000000001 280.825V336.988C135.4550000000001 354.714 149.8240000000001 369.083 167.549 369.083H228.7080000000001zM540.05 369.083C557.776 369.083 572.145 354.714 572.145 336.988V280.825C572.145 263.099 557.776 248.7299999999999 540.05 248.7299999999999H478.895C461.169 248.7299999999999 446.8 263.099 446.8 280.825V336.988C446.8 354.714 461.169 369.083 478.895 369.083H540.05zM228.708 605.7760000000001C246.433 605.7760000000001 260.802 591.407 260.802 573.681V517.518C260.802 499.792 246.433 485.423 228.7080000000001 485.423H167.549C149.8240000000001 485.423 135.4550000000001 499.792 135.4550000000001 517.518V573.681C135.4550000000001 591.407 149.8240000000001 605.7760000000001 167.549 605.7760000000001H228.7080000000001zM540.05 605.7760000000001C557.776 605.7760000000001 572.145 591.407 572.145 573.681V517.518C572.145 499.792 557.776 485.423 540.05 485.423H478.895C461.169 485.423 446.8 499.792 446.8 517.518V573.681C446.8 591.407 461.169 605.7760000000001 478.895 605.7760000000001H540.05zM851.397 605.7760000000001C869.123 605.7760000000001 883.488 591.407 883.488 573.681V517.518C883.488 499.792 869.123 485.423 851.397 485.423H790.239C772.513 485.423 758.144 499.792 758.144 517.518V573.681C758.144 591.407 772.513 605.7760000000001 790.239 605.7760000000001H851.397z" />
    <glyph glyph-name="calendar"
      unicode="&#xE688;"
      horiz-adv-x="1024" d="M832.312639 928L906.464963 928C969.895083 928 1021.79245 876.102629 1021.79245 812.672509L1021.79245 115.327491C1021.79245 51.897371 969.895083 0 906.464963 0L110.786471 0C47.356351 0 -4e-12 51.897371 -4e-12 115.327491L-7.7e-12 812.672509C-7.7e-12 876.102629 47.356351 928 110.786471 928L192 928L192 960C192 995.346224 220.653776 1024 256 1024L273.312639 1024C308.658863 1024 337.312639 995.346224 337.312639 960L337.312639 928L687 928L687 960C687 995.346224 715.653776 1024 751 1024L768.312639 1024C803.658863 1024 832.312639 995.346224 832.312639 960L832.312639 928zM64 672L64 117.192811C64 87.830379 87.9393257 64 117.435995 64L906.564005 64C936.060674 64 960 87.830379 960 117.192811L960 672L64 672z" />
    <glyph glyph-name="calendar-1"
      unicode="&#x63;&#x61;&#x6C;&#x65;&#x6E;&#x64;&#x61;&#x72;"
      horiz-adv-x="1024" d="M832.312639 928L906.464963 928C969.895083 928 1021.79245 876.102629 1021.79245 812.672509L1021.79245 115.327491C1021.79245 51.897371 969.895083 0 906.464963 0L110.786471 0C47.356351 0 -4e-12 51.897371 -4e-12 115.327491L-7.7e-12 812.672509C-7.7e-12 876.102629 47.356351 928 110.786471 928L192 928L192 960C192 995.346224 220.653776 1024 256 1024L273.312639 1024C308.658863 1024 337.312639 995.346224 337.312639 960L337.312639 928L687 928L687 960C687 995.346224 715.653776 1024 751 1024L768.312639 1024C803.658863 1024 832.312639 995.346224 832.312639 960L832.312639 928zM64 672L64 117.192811C64 87.830379 87.9393257 64 117.435995 64L906.564005 64C936.060674 64 960 87.830379 960 117.192811L960 672L64 672z" />
    <glyph glyph-name="candy-box-menu"
      unicode="&#xE689;"
      horiz-adv-x="1024" d="M316.038 813.049C316.038 759.188 272.375 715.525 218.514 715.525S120.99 759.188 120.99 813.049C120.99 866.91 164.653 910.573 218.514 910.573S316.038 866.91 316.038 813.049zM628.113 813.049C628.113 759.188 584.45 715.525 530.5870000000001 715.525C476.7290000000001 715.525 433.0650000000001 759.188 433.0650000000001 813.049S476.7280000000001 910.573 530.5870000000001 910.573C584.4490000000001 910.573 628.113 866.91 628.113 813.049zM842.662 715.525C896.524 715.525 940.188 759.188 940.188 813.049S896.525 910.573 842.662 910.573C788.8040000000001 910.573 745.14 866.91 745.14 813.049S788.803 715.525 842.662 715.525zM316.038 500.974C316.038 447.1120000000001 272.375 403.452 218.514 403.452S120.99 447.111 120.99 500.974C120.99 554.836 164.653 598.5 218.514 598.5S316.038 554.837 316.038 500.974zM530.588 403.452C584.4499999999999 403.452 628.1139999999999 447.111 628.1139999999999 500.974S584.4509999999999 598.5 530.588 598.5C476.73 598.5 433.066 554.837 433.066 500.974S476.729 403.452 530.588 403.452zM940.188 500.974C940.188 447.1120000000001 896.525 403.452 842.662 403.452C788.8040000000001 403.452 745.14 447.111 745.14 500.974S788.803 598.5 842.662 598.5C896.524 598.5 940.188 554.837 940.188 500.974zM218.514 91.374C272.375 91.374 316.038 135.037 316.038 188.8960000000001C316.038 242.7580000000001 272.375 286.4220000000001 218.514 286.4220000000001S120.99 242.759 120.99 188.8960000000001C120.99 135.0380000000001 164.653 91.374 218.514 91.374zM628.113 188.895C628.113 135.037 584.45 91.3729999999999 530.5870000000001 91.3729999999999C476.7290000000001 91.3729999999999 433.0650000000001 135.036 433.0650000000001 188.895C433.0650000000001 242.757 476.7280000000001 286.421 530.5870000000001 286.421C584.4490000000001 286.421 628.113 242.7579999999999 628.113 188.895zM842.662 91.374C896.524 91.374 940.188 135.037 940.188 188.8960000000001C940.188 242.7580000000001 896.525 286.4220000000001 842.662 286.4220000000001C788.8040000000001 286.4220000000001 745.14 242.759 745.14 188.8960000000001C745.14 135.0380000000001 788.803 91.374 842.662 91.374z" />
    <glyph glyph-name="candy-box-menu-1"
      unicode="&#x63;&#x61;&#x6E;&#x64;&#x79;&#x2D;&#x62;&#x6F;&#x78;&#x2D;&#x6D;&#x65;&#x6E;&#x75;"
      horiz-adv-x="1024" d="M316.038 813.049C316.038 759.188 272.375 715.525 218.514 715.525S120.99 759.188 120.99 813.049C120.99 866.91 164.653 910.573 218.514 910.573S316.038 866.91 316.038 813.049zM628.113 813.049C628.113 759.188 584.45 715.525 530.5870000000001 715.525C476.7290000000001 715.525 433.0650000000001 759.188 433.0650000000001 813.049S476.7280000000001 910.573 530.5870000000001 910.573C584.4490000000001 910.573 628.113 866.91 628.113 813.049zM842.662 715.525C896.524 715.525 940.188 759.188 940.188 813.049S896.525 910.573 842.662 910.573C788.8040000000001 910.573 745.14 866.91 745.14 813.049S788.803 715.525 842.662 715.525zM316.038 500.974C316.038 447.1120000000001 272.375 403.452 218.514 403.452S120.99 447.111 120.99 500.974C120.99 554.836 164.653 598.5 218.514 598.5S316.038 554.837 316.038 500.974zM530.588 403.452C584.4499999999999 403.452 628.1139999999999 447.111 628.1139999999999 500.974S584.4509999999999 598.5 530.588 598.5C476.73 598.5 433.066 554.837 433.066 500.974S476.729 403.452 530.588 403.452zM940.188 500.974C940.188 447.1120000000001 896.525 403.452 842.662 403.452C788.8040000000001 403.452 745.14 447.111 745.14 500.974S788.803 598.5 842.662 598.5C896.524 598.5 940.188 554.837 940.188 500.974zM218.514 91.374C272.375 91.374 316.038 135.037 316.038 188.8960000000001C316.038 242.7580000000001 272.375 286.4220000000001 218.514 286.4220000000001S120.99 242.759 120.99 188.8960000000001C120.99 135.0380000000001 164.653 91.374 218.514 91.374zM628.113 188.895C628.113 135.037 584.45 91.3729999999999 530.5870000000001 91.3729999999999C476.7290000000001 91.3729999999999 433.0650000000001 135.036 433.0650000000001 188.895C433.0650000000001 242.757 476.7280000000001 286.421 530.5870000000001 286.421C584.4490000000001 286.421 628.113 242.7579999999999 628.113 188.895zM842.662 91.374C896.524 91.374 940.188 135.037 940.188 188.8960000000001C940.188 242.7580000000001 896.525 286.4220000000001 842.662 286.4220000000001C788.8040000000001 286.4220000000001 745.14 242.759 745.14 188.8960000000001C745.14 135.0380000000001 788.803 91.374 842.662 91.374z" />
    <glyph glyph-name="carat-down-small"
      unicode="&#xE68A;"
      horiz-adv-x="1024" d="M819 651.614423C819 642.7987089999999 816.3106799999999 637.210691 811.74252 627.3804069999999L566.7565199999999 268.5247950000001C555.15192 251.760744 534.088345 241 512.149902 241C490.21146 241 468.84194 251.760744 457.2311999999999 268.5247950000001L212.25134 627.375151C207.67704 637.210691 205 642.7987089999999 205 651.609166C205 679.996083 231.87478 703 265.0307800000001 703L758.96922 703C792.12522 703.0052559999999 819 680.00134 819 651.614423z" />
    <glyph glyph-name="carat-down-small-1"
      unicode="&#x63;&#x61;&#x72;&#x61;&#x74;&#x2D;&#x64;&#x6F;&#x77;&#x6E;&#x2D;&#x73;&#x6D;&#x61;&#x6C;&#x6C;"
      horiz-adv-x="1024" d="M819 651.614423C819 642.7987089999999 816.3106799999999 637.210691 811.74252 627.3804069999999L566.7565199999999 268.5247950000001C555.15192 251.760744 534.088345 241 512.149902 241C490.21146 241 468.84194 251.760744 457.2311999999999 268.5247950000001L212.25134 627.375151C207.67704 637.210691 205 642.7987089999999 205 651.609166C205 679.996083 231.87478 703 265.0307800000001 703L758.96922 703C792.12522 703.0052559999999 819 680.00134 819 651.614423z" />
    <glyph glyph-name="carat-down"
      unicode="&#xE68B;"
      horiz-adv-x="1024" d="M1024 811.4304070000001C1024 796.750079 1019.51488 787.44466 1011.89632 771.074825L603.32032 173.492186C583.96672 145.5759270000001 548.837891 127.6566479999999 512.25 127.6566479999999C475.66211 127.6566479999999 440.02304 145.5759270000001 420.6592 173.492186L12.0934359999999 771.066071C4.4646359999999 787.44466 -1e-13 796.7500789999999 -1e-13 811.421653C-1e-13 858.692834 44.82048 897 100.1164799999999 897L923.8835196 897C979.1795198 897.008752 1024 858.701588 1024 811.4304070000001z" />
    <glyph glyph-name="carat-down-1"
      unicode="&#x63;&#x61;&#x72;&#x61;&#x74;&#x2D;&#x64;&#x6F;&#x77;&#x6E;"
      horiz-adv-x="1024" d="M1024 811.4304070000001C1024 796.750079 1019.51488 787.44466 1011.89632 771.074825L603.32032 173.492186C583.96672 145.5759270000001 548.837891 127.6566479999999 512.25 127.6566479999999C475.66211 127.6566479999999 440.02304 145.5759270000001 420.6592 173.492186L12.0934359999999 771.066071C4.4646359999999 787.44466 -1e-13 796.7500789999999 -1e-13 811.421653C-1e-13 858.692834 44.82048 897 100.1164799999999 897L923.8835196 897C979.1795198 897.008752 1024 858.701588 1024 811.4304070000001z" />
    <glyph glyph-name="carat-left"
      unicode="&#xE68C;"
      horiz-adv-x="1024" d="M811.102083 -5.67167621C796.421755 -5.67167621 787.116336 -1.1865562 770.746501 6.4320037999998L173.163862 415.0080039999999C145.247603 434.361604 127.328324 469.4904329999999 127.328324 506.078324C127.328324 542.6662139999999 145.247603 578.3052839999999 173.163862 597.6691239999999L770.737747 1006.234888C787.116336 1013.863688 796.421755 1018.3283279999998 811.093329 1018.3283279999998C858.36451 1018.3283279999998 896.6716739999999 973.5078439999997 896.6716739999999 918.211844L896.6716739999999 94.4448039999999C896.680428 39.1488037999999 858.3732640000001 -5.67167621 811.102083 -5.67167621z" />
    <glyph glyph-name="carat-left-1"
      unicode="&#x63;&#x61;&#x72;&#x61;&#x74;&#x2D;&#x6C;&#x65;&#x66;&#x74;"
      horiz-adv-x="1024" d="M811.102083 -5.67167621C796.421755 -5.67167621 787.116336 -1.1865562 770.746501 6.4320037999998L173.163862 415.0080039999999C145.247603 434.361604 127.328324 469.4904329999999 127.328324 506.078324C127.328324 542.6662139999999 145.247603 578.3052839999999 173.163862 597.6691239999999L770.737747 1006.234888C787.116336 1013.863688 796.421755 1018.3283279999998 811.093329 1018.3283279999998C858.36451 1018.3283279999998 896.6716739999999 973.5078439999997 896.6716739999999 918.211844L896.6716739999999 94.4448039999999C896.680428 39.1488037999999 858.3732640000001 -5.67167621 811.102083 -5.67167621z" />
    <glyph glyph-name="carat-right"
      unicode="&#xE68D;"
      horiz-adv-x="1024" d="M212.897917 0C227.578245 0 236.883664 4.4851200000001 253.253499 12.1036800000001L850.836138 420.67968C878.752397 440.03328 896.671676 475.162109 896.671676 511.75C896.671676 548.337891 878.752397 583.97696 850.836138 603.3408L253.262253 1011.90656C236.883664 1019.53536 227.578245 1024 212.906671 1024C165.63549 1024 127.328326 979.17952 127.328326 923.88352L127.328326 100.11648C127.319572 44.82048 165.626736 0 212.897917 0z" />
    <glyph glyph-name="carat-right-1"
      unicode="&#x63;&#x61;&#x72;&#x61;&#x74;&#x2D;&#x72;&#x69;&#x67;&#x68;&#x74;"
      horiz-adv-x="1024" d="M212.897917 0C227.578245 0 236.883664 4.4851200000001 253.253499 12.1036800000001L850.836138 420.67968C878.752397 440.03328 896.671676 475.162109 896.671676 511.75C896.671676 548.337891 878.752397 583.97696 850.836138 603.3408L253.262253 1011.90656C236.883664 1019.53536 227.578245 1024 212.906671 1024C165.63549 1024 127.328326 979.17952 127.328326 923.88352L127.328326 100.11648C127.319572 44.82048 165.626736 0 212.897917 0z" />
    <glyph glyph-name="carat-up"
      unicode="&#xE68E;"
      horiz-adv-x="1024" d="M1024.0000002099998 207.2262410000001C1024.0000002099998 221.9065690000001 1019.5148801999998 231.211988 1011.8963201999998 247.5818230000001L603.3203199999998 845.1644620000001C583.9667199999999 873.080721 548.8378909999999 891.0000000000001 512.2499999999999 891.0000000000001C475.66211 891.0000000000001 440.0230399999999 873.080721 420.6592 845.1644620000001L12.0934359999999 247.590577C4.4646359999999 231.211988 -0.000004 221.906569 -0.000004 207.234995C-0.000004 159.963814 44.82048 121.65665 100.1164799999999 121.65665L923.8835199999997 121.6566500000001C979.1795202 121.6478960000001 1024.0000002099998 159.95506 1024.0000002099998 207.2262410000001z" />
    <glyph glyph-name="carat-up-1"
      unicode="&#x63;&#x61;&#x72;&#x61;&#x74;&#x2D;&#x75;&#x70;"
      horiz-adv-x="1024" d="M1024.0000002099998 207.2262410000001C1024.0000002099998 221.9065690000001 1019.5148801999998 231.211988 1011.8963201999998 247.5818230000001L603.3203199999998 845.1644620000001C583.9667199999999 873.080721 548.8378909999999 891.0000000000001 512.2499999999999 891.0000000000001C475.66211 891.0000000000001 440.0230399999999 873.080721 420.6592 845.1644620000001L12.0934359999999 247.590577C4.4646359999999 231.211988 -0.000004 221.906569 -0.000004 207.234995C-0.000004 159.963814 44.82048 121.65665 100.1164799999999 121.65665L923.8835199999997 121.6566500000001C979.1795202 121.6478960000001 1024.0000002099998 159.95506 1024.0000002099998 207.2262410000001z" />
    <glyph glyph-name="circle-add"
      unicode="&#xE68F;"
      horiz-adv-x="1024" d="M512 1024C795.136 1024 1024 795.136 1024 512C1024 228.8640000000001 795.136 0 512 0C228.864 0 0 228.8640000000001 0 512C0 795.136 228.864 1024 512 1024zM547.85817 492.14183L780.358171 492.14183C800.240421 492.14183 816.35817 508.259579 816.358171 528.1418289999999C816.35817 548.02408 800.240421 564.1418289999999 780.358171 564.1418289999999L547.85817 564.1418289999999L547.85817 796.64183C547.85817 816.52408 531.740421 832.641829 511.858171 832.64183C491.97592 832.641829 475.858171 816.52408 475.858171 796.64183L475.858171 564.1418289999999L243.35817 564.1418289999999C223.47592 564.1418289999999 207.358171 548.02408 207.35817 528.1418289999999C207.358171 508.259579 223.47592 492.14183 243.35817 492.14183L475.858171 492.14183L475.858171 259.6418290000001C475.858171 239.7595790000001 491.97592 223.64183 511.858171 223.641829C531.740421 223.64183 547.85817 239.7595790000001 547.85817 259.6418290000001L547.85817 492.14183z" />
    <glyph glyph-name="circle-add-1"
      unicode="&#x63;&#x69;&#x72;&#x63;&#x6C;&#x65;&#x2D;&#x61;&#x64;&#x64;"
      horiz-adv-x="1024" d="M512 1024C795.136 1024 1024 795.136 1024 512C1024 228.8640000000001 795.136 0 512 0C228.864 0 0 228.8640000000001 0 512C0 795.136 228.864 1024 512 1024zM547.85817 492.14183L780.358171 492.14183C800.240421 492.14183 816.35817 508.259579 816.358171 528.1418289999999C816.35817 548.02408 800.240421 564.1418289999999 780.358171 564.1418289999999L547.85817 564.1418289999999L547.85817 796.64183C547.85817 816.52408 531.740421 832.641829 511.858171 832.64183C491.97592 832.641829 475.858171 816.52408 475.858171 796.64183L475.858171 564.1418289999999L243.35817 564.1418289999999C223.47592 564.1418289999999 207.358171 548.02408 207.35817 528.1418289999999C207.358171 508.259579 223.47592 492.14183 243.35817 492.14183L475.858171 492.14183L475.858171 259.6418290000001C475.858171 239.7595790000001 491.97592 223.64183 511.858171 223.641829C531.740421 223.64183 547.85817 239.7595790000001 547.85817 259.6418290000001L547.85817 492.14183z" />
    <glyph glyph-name="circle-cancel"
      unicode="&#xE690;"
      horiz-adv-x="1024" d="M512 1024C795.136 1024 1024 795.136 1024 512C1024 228.8640000000001 795.136 0 512 0C228.864 0 9e-13 228.8640000000001 9e-13 512C9e-13 795.136 228.864 1024 512 1024zM562.911688 512.5L727.314015 676.902327C741.372889 690.9612010000001 741.372889 713.75514 727.314015 727.8140149999999C713.25514 741.872889 690.461201 741.872889 676.402327 727.8140149999999L512 563.411688L347.597673 727.8140149999999C333.538799 741.872889 310.74486 741.872889 296.685985 727.8140149999999C282.627111 713.75514 282.627111 690.9612010000001 296.685985 676.902327L461.088312 512.5L296.685985 348.097673C282.627111 334.0387990000001 282.627111 311.24486 296.685985 297.185985C310.74486 283.127111 333.538799 283.127111 347.597673 297.185985L512 461.588312L676.402327 297.185985C690.461201 283.127111 713.25514 283.127111 727.314015 297.185985C741.372889 311.24486 741.372889 334.0387990000001 727.314015 348.097673L562.911688 512.5z" />
    <glyph glyph-name="circle-cancel-1"
      unicode="&#x63;&#x69;&#x72;&#x63;&#x6C;&#x65;&#x2D;&#x63;&#x61;&#x6E;&#x63;&#x65;&#x6C;"
      horiz-adv-x="1024" d="M512 1024C795.136 1024 1024 795.136 1024 512C1024 228.8640000000001 795.136 0 512 0C228.864 0 9e-13 228.8640000000001 9e-13 512C9e-13 795.136 228.864 1024 512 1024zM562.911688 512.5L727.314015 676.902327C741.372889 690.9612010000001 741.372889 713.75514 727.314015 727.8140149999999C713.25514 741.872889 690.461201 741.872889 676.402327 727.8140149999999L512 563.411688L347.597673 727.8140149999999C333.538799 741.872889 310.74486 741.872889 296.685985 727.8140149999999C282.627111 713.75514 282.627111 690.9612010000001 296.685985 676.902327L461.088312 512.5L296.685985 348.097673C282.627111 334.0387990000001 282.627111 311.24486 296.685985 297.185985C310.74486 283.127111 333.538799 283.127111 347.597673 297.185985L512 461.588312L676.402327 297.185985C690.461201 283.127111 713.25514 283.127111 727.314015 297.185985C741.372889 311.24486 741.372889 334.0387990000001 727.314015 348.097673L562.911688 512.5z" />
    <glyph glyph-name="circle-check"
      unicode="&#xE691;"
      horiz-adv-x="1024" d="M875.081332 872.99302L405 402.9116880000001L238.455844 569.4558440000001C224.39697 583.514719 201.60303 583.514719 187.544156 569.4558440000001C173.485281 555.39697 173.485281 532.60303 187.544156 518.5441559999999L379.544156 326.5441560000001C393.60303 312.485281 416.39697 312.485281 430.455844 326.5441560000001L922.269066 818.357378C986.16227 732.930564 1024 626.88402 1024 512C1024 229.230208 794.769792 0 512 0C229.230208 0 0 229.230208 0 512C0 794.769792 229.230208 1024 512 1024C653.916006 1024 782.346367 966.2610896 875.081332 872.99302z" />
    <glyph glyph-name="circle-check-1"
      unicode="&#x63;&#x69;&#x72;&#x63;&#x6C;&#x65;&#x2D;&#x63;&#x68;&#x65;&#x63;&#x6B;"
      horiz-adv-x="1024" d="M875.081332 872.99302L405 402.9116880000001L238.455844 569.4558440000001C224.39697 583.514719 201.60303 583.514719 187.544156 569.4558440000001C173.485281 555.39697 173.485281 532.60303 187.544156 518.5441559999999L379.544156 326.5441560000001C393.60303 312.485281 416.39697 312.485281 430.455844 326.5441560000001L922.269066 818.357378C986.16227 732.930564 1024 626.88402 1024 512C1024 229.230208 794.769792 0 512 0C229.230208 0 0 229.230208 0 512C0 794.769792 229.230208 1024 512 1024C653.916006 1024 782.346367 966.2610896 875.081332 872.99302z" />
    <glyph glyph-name="circle-down"
      unicode="&#xE692;"
      horiz-adv-x="1024" d="M512 1024C794.769792 1024 1024 794.769792 1024 512C1024 229.230208 794.769792 0 512 0C229.230208 0 0 229.230208 0 512C0 794.769792 229.230208 1024 512 1024zM731.316551 622.594379C717.181165 636.576324 694.387566 636.4519359999999 680.405621 622.316551L680.405621 622.316551L510.998905 451.050735L339.445603 622.466081C325.381074 636.5192999999999 302.587137 636.510131 288.5339190000001 622.445603C274.4807 608.381074 274.489869 585.587137 288.554397 571.533919L288.554397 571.533919L483.569907 376.6752320000001L483.569907 376.6752320000001L483.639722 376.605649C483.657198 376.588276 483.674703 376.570931 483.709713 376.536243C499.023047 361.389136 523.716114 361.5238900000001 538.863221 376.837224L538.863221 376.837224L731.594379 571.683449C745.576324 585.818835 745.451936 608.612434 731.316551 622.594379z" />
    <glyph glyph-name="circle-down-1"
      unicode="&#x63;&#x69;&#x72;&#x63;&#x6C;&#x65;&#x2D;&#x64;&#x6F;&#x77;&#x6E;"
      horiz-adv-x="1024" d="M512 1024C794.769792 1024 1024 794.769792 1024 512C1024 229.230208 794.769792 0 512 0C229.230208 0 0 229.230208 0 512C0 794.769792 229.230208 1024 512 1024zM731.316551 622.594379C717.181165 636.576324 694.387566 636.4519359999999 680.405621 622.316551L680.405621 622.316551L510.998905 451.050735L339.445603 622.466081C325.381074 636.5192999999999 302.587137 636.510131 288.5339190000001 622.445603C274.4807 608.381074 274.489869 585.587137 288.554397 571.533919L288.554397 571.533919L483.569907 376.6752320000001L483.569907 376.6752320000001L483.639722 376.605649C483.657198 376.588276 483.674703 376.570931 483.709713 376.536243C499.023047 361.389136 523.716114 361.5238900000001 538.863221 376.837224L538.863221 376.837224L731.594379 571.683449C745.576324 585.818835 745.451936 608.612434 731.316551 622.594379z" />
    <glyph glyph-name="circle-info"
      unicode="&#xE693;"
      horiz-adv-x="1024" d="M512 1024C794.7776 1024 1024 794.7776 1024 512C1024 229.2224 794.7776 0 512 0C229.2224 0 0 229.2224 0 512C0 794.7776 229.2224 1024 512 1024zM510 651C491.222319 651 476 635.777681 476 617L476 248C476 229.222319 491.222319 214 510 214L514 214C532.777681 214 548 229.222319 548 248L548 617C548 635.777681 532.777681 651 514 651L510 651zM510 819C491.222319 819 476 803.777681 476 785L476 757C476 738.222319 491.222319 723 510 723L514 723C532.777681 723 548 738.222319 548 757L548 785C548 803.777681 532.777681 819 514 819L510 819z" />
    <glyph glyph-name="circle-info-1"
      unicode="&#x63;&#x69;&#x72;&#x63;&#x6C;&#x65;&#x2D;&#x69;&#x6E;&#x66;&#x6F;"
      horiz-adv-x="1024" d="M512 1024C794.7776 1024 1024 794.7776 1024 512C1024 229.2224 794.7776 0 512 0C229.2224 0 0 229.2224 0 512C0 794.7776 229.2224 1024 512 1024zM510 651C491.222319 651 476 635.777681 476 617L476 248C476 229.222319 491.222319 214 510 214L514 214C532.777681 214 548 229.222319 548 248L548 617C548 635.777681 532.777681 651 514 651L510 651zM510 819C491.222319 819 476 803.777681 476 785L476 757C476 738.222319 491.222319 723 510 723L514 723C532.777681 723 548 738.222319 548 757L548 785C548 803.777681 532.777681 819 514 819L510 819z" />
    <glyph glyph-name="circle-left"
      unicode="&#xE694;"
      horiz-adv-x="1024" d="M512 1024C794.769792 1024 1024 794.769792 1024 512C1024 229.230208 794.769792 0 512 0C229.230208 0 0 229.230208 0 512C0 794.769792 229.230208 1024 512 1024zM567.419966 733.7261209999999L372.57374 540.994962C357.260406 525.847855 357.125652 501.1547890000001 372.272759 485.841455C372.342136 485.771435 372.342136 485.771435 372.411749 485.701649L567.270435 290.6861390000001C581.323653 276.6216110000001 604.117591 276.612442 618.182119 290.66566C632.246648 304.718879 632.255816 327.5128160000001 618.202598 341.5773440000001L446.787252 513.130647L618.053067 682.537362C632.188453 696.519307 632.312841 719.312907 618.330896 733.4482929999999C604.348951 747.583678 581.555351 747.7080659999999 567.419966 733.7261209999999z" />
    <glyph glyph-name="circle-left-1"
      unicode="&#x63;&#x69;&#x72;&#x63;&#x6C;&#x65;&#x2D;&#x6C;&#x65;&#x66;&#x74;"
      horiz-adv-x="1024" d="M512 1024C794.769792 1024 1024 794.769792 1024 512C1024 229.230208 794.769792 0 512 0C229.230208 0 0 229.230208 0 512C0 794.769792 229.230208 1024 512 1024zM567.419966 733.7261209999999L372.57374 540.994962C357.260406 525.847855 357.125652 501.1547890000001 372.272759 485.841455C372.342136 485.771435 372.342136 485.771435 372.411749 485.701649L567.270435 290.6861390000001C581.323653 276.6216110000001 604.117591 276.612442 618.182119 290.66566C632.246648 304.718879 632.255816 327.5128160000001 618.202598 341.5773440000001L446.787252 513.130647L618.053067 682.537362C632.188453 696.519307 632.312841 719.312907 618.330896 733.4482929999999C604.348951 747.583678 581.555351 747.7080659999999 567.419966 733.7261209999999z" />
    <glyph glyph-name="circle-ok"
      unicode="&#xE695;"
      horiz-adv-x="1024" d="M512 0C229.230208 0 0 229.230208 0 512C0 794.769792 229.230208 1024 512 1024C794.769792 1024 1024 794.769792 1024 512C1024 229.230208 794.769792 0 512 0zM430.544156 402.9116880000001L300.455844 544C286.39697 558.058875 263.60303 558.058875 249.544156 544C235.485281 529.941125 235.485281 507.147186 249.544156 493.088312L405.088312 326.5441560000001C419.147186 312.485281 441.941125 312.485281 456 326.5441560000001L825.544156 685.088312C839.60303 699.1471859999999 839.60303 721.941125 825.544156 736C811.485281 750.058875 788.691342 750.058875 774.632468 736L430.544156 402.9116880000001z" />
    <glyph glyph-name="circle-ok-1"
      unicode="&#x63;&#x69;&#x72;&#x63;&#x6C;&#x65;&#x2D;&#x6F;&#x6B;"
      horiz-adv-x="1024" d="M512 0C229.230208 0 0 229.230208 0 512C0 794.769792 229.230208 1024 512 1024C794.769792 1024 1024 794.769792 1024 512C1024 229.230208 794.769792 0 512 0zM430.544156 402.9116880000001L300.455844 544C286.39697 558.058875 263.60303 558.058875 249.544156 544C235.485281 529.941125 235.485281 507.147186 249.544156 493.088312L405.088312 326.5441560000001C419.147186 312.485281 441.941125 312.485281 456 326.5441560000001L825.544156 685.088312C839.60303 699.1471859999999 839.60303 721.941125 825.544156 736C811.485281 750.058875 788.691342 750.058875 774.632468 736L430.544156 402.9116880000001z" />
    <glyph glyph-name="circle-pencil"
      unicode="&#xE696;"
      horiz-adv-x="1024" d="M512 0C229.230208 0 0 229.230208 0 512C0 794.769792 229.230208 1024 512 1024C794.769792 1024 1024 794.769792 1024 512C1024 229.230208 794.769792 0 512 0zM624.886597 707.490909L599.206452 682.678448L541.188347 624.464598C469.854611 552.8901920000001 398.520875 480.361461 326.236023 408.787056C320.529324 403.061103 315.7737420000001 396.380825 312.920392 389.7005480000001C295.800296 354.390507 278.680199 320.0347930000001 261.5601030000001 285.679078L249.195588 260.866617C246.342239 255.140665 244.440006 248.460387 242.537773 242.734435C239.684424 224.602252 249.195588 209.333045 266.315685 205.5157440000001C271.071267 204.561418 275.82685 204.561418 282.484665 205.5157440000001C287.240247 206.470069 292.9469460000001 208.3787200000001 299.604762 212.196022L323.382674 223.647926C351.9161680000001 237.008482 379.498546 251.323363 408.03204 265.638244L411.836506 267.546895C424.2010200000001 273.272848 438.467767 280.9074510000001 451.783398 294.268007C489.828057 332.441023 527.872716 371.568365 565.917375 409.7413810000001L730.460526 575.794002C731.411642 576.748328 732.362759 577.702653 733.313875 578.656979L744.727273 589.154558L624.886597 707.490909zM805.635545 707.432301C786.019936 728.181506 765.423546 747.942654 745.807936 768.691859C727.173108 787.4649489999999 697.749693 786.476891 676.172523 764.7396289999999C665.383938 754.859055 655.576133 743.9904240000001 644.787548 733.121793L635.960524 724.229277C634.979743 723.241219 633.998963 722.253162 633.998963 721.265105L633.018182 722.253162L641.845206 713.360646L644.787548 710.396473L748.750278 606.650449L759.538863 595.7818179999999L772.289009 607.638506C782.096814 617.51908 791.904619 627.399654 801.712423 637.2802280000001C823.289594 659.01749 825.251155 687.671154 805.635545 707.432301z" />
    <glyph glyph-name="circle-pencil-1"
      unicode="&#x63;&#x69;&#x72;&#x63;&#x6C;&#x65;&#x2D;&#x70;&#x65;&#x6E;&#x63;&#x69;&#x6C;"
      horiz-adv-x="1024" d="M512 0C229.230208 0 0 229.230208 0 512C0 794.769792 229.230208 1024 512 1024C794.769792 1024 1024 794.769792 1024 512C1024 229.230208 794.769792 0 512 0zM624.886597 707.490909L599.206452 682.678448L541.188347 624.464598C469.854611 552.8901920000001 398.520875 480.361461 326.236023 408.787056C320.529324 403.061103 315.7737420000001 396.380825 312.920392 389.7005480000001C295.800296 354.390507 278.680199 320.0347930000001 261.5601030000001 285.679078L249.195588 260.866617C246.342239 255.140665 244.440006 248.460387 242.537773 242.734435C239.684424 224.602252 249.195588 209.333045 266.315685 205.5157440000001C271.071267 204.561418 275.82685 204.561418 282.484665 205.5157440000001C287.240247 206.470069 292.9469460000001 208.3787200000001 299.604762 212.196022L323.382674 223.647926C351.9161680000001 237.008482 379.498546 251.323363 408.03204 265.638244L411.836506 267.546895C424.2010200000001 273.272848 438.467767 280.9074510000001 451.783398 294.268007C489.828057 332.441023 527.872716 371.568365 565.917375 409.7413810000001L730.460526 575.794002C731.411642 576.748328 732.362759 577.702653 733.313875 578.656979L744.727273 589.154558L624.886597 707.490909zM805.635545 707.432301C786.019936 728.181506 765.423546 747.942654 745.807936 768.691859C727.173108 787.4649489999999 697.749693 786.476891 676.172523 764.7396289999999C665.383938 754.859055 655.576133 743.9904240000001 644.787548 733.121793L635.960524 724.229277C634.979743 723.241219 633.998963 722.253162 633.998963 721.265105L633.018182 722.253162L641.845206 713.360646L644.787548 710.396473L748.750278 606.650449L759.538863 595.7818179999999L772.289009 607.638506C782.096814 617.51908 791.904619 627.399654 801.712423 637.2802280000001C823.289594 659.01749 825.251155 687.671154 805.635545 707.432301z" />
    <glyph glyph-name="circle-question"
      unicode="&#xE697;"
      horiz-adv-x="1024" d="M512 1024C794.7776 1024 1024 794.7776 1024 512C1024 229.2224 794.7776 0 512 0C229.2224 0 0 229.2224 0 512C0 794.7776 229.2224 1024 512 1024zM510 288C491.222319 288 476 272.7776810000001 476 254L476 226C476 207.222319 491.222319 192 510 192L514 192C532.777681 192 548 207.222319 548 226L548 254C548 272.7776810000001 532.777681 288 514 288L510 288zM547.342857 472.303701C547.342857 488.368283 557.625381 502.824632 575.503851 510.996122C635.218154 536.2834740000001 674.936977 597.094692 673.137434 663.3748519999999C671.197068 748.296992 601.772892 817.8025 516.881052 819.875229C426.4657670000001 823.446415 351 750.222437 351 659.549415C351 639.667164 367.117749 623.549415 387 623.549415C406.882251 623.549415 423 639.667164 423 659.549415C423 709.559728 464.730426 749.986078 514.232729 747.9234819999999C514.465617 747.913778 514.698594 747.906337 514.931626 747.901158C561.5046 746.866203 600.122502 708.2483010000001 601.157457 661.6753269999999L601.162452 661.475515C602.178663 624.8919430000001 579.937429 590.9289779999999 547.15784 577.182699C546.872607 577.063085 546.588927 576.9398 546.306872 576.8128750000001C503.501946 557.550659 475.342857 518.245264 475.342857 472.303701L475.342857 384C475.342857 364.117749 491.460606 348 511.342857 348C531.225108 348 547.342857 364.117749 547.342857 384L547.342857 472.303701z" />
    <glyph glyph-name="circle-question-1"
      unicode="&#x63;&#x69;&#x72;&#x63;&#x6C;&#x65;&#x2D;&#x71;&#x75;&#x65;&#x73;&#x74;&#x69;&#x6F;&#x6E;"
      horiz-adv-x="1024" d="M512 1024C794.7776 1024 1024 794.7776 1024 512C1024 229.2224 794.7776 0 512 0C229.2224 0 0 229.2224 0 512C0 794.7776 229.2224 1024 512 1024zM510 288C491.222319 288 476 272.7776810000001 476 254L476 226C476 207.222319 491.222319 192 510 192L514 192C532.777681 192 548 207.222319 548 226L548 254C548 272.7776810000001 532.777681 288 514 288L510 288zM547.342857 472.303701C547.342857 488.368283 557.625381 502.824632 575.503851 510.996122C635.218154 536.2834740000001 674.936977 597.094692 673.137434 663.3748519999999C671.197068 748.296992 601.772892 817.8025 516.881052 819.875229C426.4657670000001 823.446415 351 750.222437 351 659.549415C351 639.667164 367.117749 623.549415 387 623.549415C406.882251 623.549415 423 639.667164 423 659.549415C423 709.559728 464.730426 749.986078 514.232729 747.9234819999999C514.465617 747.913778 514.698594 747.906337 514.931626 747.901158C561.5046 746.866203 600.122502 708.2483010000001 601.157457 661.6753269999999L601.162452 661.475515C602.178663 624.8919430000001 579.937429 590.9289779999999 547.15784 577.182699C546.872607 577.063085 546.588927 576.9398 546.306872 576.8128750000001C503.501946 557.550659 475.342857 518.245264 475.342857 472.303701L475.342857 384C475.342857 364.117749 491.460606 348 511.342857 348C531.225108 348 547.342857 364.117749 547.342857 384L547.342857 472.303701z" />
    <glyph glyph-name="circle-remove"
      unicode="&#xE698;"
      horiz-adv-x="1024" d="M512 1023.9999999999998C795.136 1023.9999999999998 1024 795.136 1024 512C1024 228.8640000000001 795.136 0 512 0C228.864 0 -1.1e-12 228.8640000000001 -1.1e-12 512C-1.1e-12 795.136 228.864 1023.9999999999998 512 1023.9999999999998zM780.5 548.5L243.5 548.5C223.617749 548.5 207.5 532.382251 207.5 512.5C207.5 492.617749 223.617749 476.5 243.5 476.5L243.5 476.5L780.5 476.5C800.382251 476.5 816.5 492.617749 816.5 512.5C816.5 532.382251 800.382251 548.5 780.5 548.5L780.5 548.5z" />
    <glyph glyph-name="circle-remove-1"
      unicode="&#x63;&#x69;&#x72;&#x63;&#x6C;&#x65;&#x2D;&#x72;&#x65;&#x6D;&#x6F;&#x76;&#x65;"
      horiz-adv-x="1024" d="M512 1023.9999999999998C795.136 1023.9999999999998 1024 795.136 1024 512C1024 228.8640000000001 795.136 0 512 0C228.864 0 -1.1e-12 228.8640000000001 -1.1e-12 512C-1.1e-12 795.136 228.864 1023.9999999999998 512 1023.9999999999998zM780.5 548.5L243.5 548.5C223.617749 548.5 207.5 532.382251 207.5 512.5C207.5 492.617749 223.617749 476.5 243.5 476.5L243.5 476.5L780.5 476.5C800.382251 476.5 816.5 492.617749 816.5 512.5C816.5 532.382251 800.382251 548.5 780.5 548.5L780.5 548.5z" />
    <glyph glyph-name="circle-right"
      unicode="&#xE699;"
      horiz-adv-x="1024" d="M512 1024C794.769792 1024 1024 794.769792 1024 512C1024 229.230208 794.769792 0 512 0C229.230208 0 0 229.230208 0 512C0 794.769792 229.230208 1024 512 1024zM447.316554 733.7261209999999C433.181169 747.7080659999999 410.387569 747.583678 396.405624 733.4482929999999C382.423679 719.312907 382.548067 696.519307 396.683452 682.537362L396.683452 682.537362L567.949268 513.130647L396.533922 341.5773440000001C382.480704 327.5128160000001 382.489872 304.718879 396.554401 290.66566C410.618929 276.612442 433.412866 276.6216110000001 447.466085 290.6861390000001L447.466085 290.6861390000001L642.324771 485.701649L642.324771 485.701649L642.422564 485.799884L642.422564 485.799884L642.46376 485.841455C657.610867 501.1547890000001 657.476114 525.847855 642.16278 540.994962L642.16278 540.994962z" />
    <glyph glyph-name="circle-right-1"
      unicode="&#x63;&#x69;&#x72;&#x63;&#x6C;&#x65;&#x2D;&#x72;&#x69;&#x67;&#x68;&#x74;"
      horiz-adv-x="1024" d="M512 1024C794.769792 1024 1024 794.769792 1024 512C1024 229.230208 794.769792 0 512 0C229.230208 0 0 229.230208 0 512C0 794.769792 229.230208 1024 512 1024zM447.316554 733.7261209999999C433.181169 747.7080659999999 410.387569 747.583678 396.405624 733.4482929999999C382.423679 719.312907 382.548067 696.519307 396.683452 682.537362L396.683452 682.537362L567.949268 513.130647L396.533922 341.5773440000001C382.480704 327.5128160000001 382.489872 304.718879 396.554401 290.66566C410.618929 276.612442 433.412866 276.6216110000001 447.466085 290.6861390000001L447.466085 290.6861390000001L642.324771 485.701649L642.324771 485.701649L642.422564 485.799884L642.422564 485.799884L642.46376 485.841455C657.610867 501.1547890000001 657.476114 525.847855 642.16278 540.994962L642.16278 540.994962z" />
    <glyph glyph-name="circle-up"
      unicode="&#xE69A;"
      horiz-adv-x="1024" d="M512 1024C794.769792 1024 1024 794.769792 1024 512C1024 229.230208 794.769792 0 512 0C229.230208 0 0 229.230208 0 512C0 794.769792 229.230208 1024 512 1024zM483.709713 634.727241L483.611346 634.62958C483.600438 634.618707 483.587353 634.605654 483.569907 634.588251L288.554397 439.729565C274.489869 425.676347 274.4807 402.8824090000001 288.5339190000001 388.8178810000001C302.587137 374.753352 325.381074 374.744184 339.445603 388.7974020000001L510.998905 560.2127479999999L680.405621 388.946933C694.387566 374.811547 717.181165 374.687159 731.316551 388.669104C745.451936 402.651049 745.576324 425.4446490000001 731.594379 439.580034L538.863221 634.42626C523.716114 649.739594 499.023047 649.874348 483.709713 634.727241z" />
    <glyph glyph-name="circle-up-1"
      unicode="&#x63;&#x69;&#x72;&#x63;&#x6C;&#x65;&#x2D;&#x75;&#x70;"
      horiz-adv-x="1024" d="M512 1024C794.769792 1024 1024 794.769792 1024 512C1024 229.230208 794.769792 0 512 0C229.230208 0 0 229.230208 0 512C0 794.769792 229.230208 1024 512 1024zM483.709713 634.727241L483.611346 634.62958C483.600438 634.618707 483.587353 634.605654 483.569907 634.588251L288.554397 439.729565C274.489869 425.676347 274.4807 402.8824090000001 288.5339190000001 388.8178810000001C302.587137 374.753352 325.381074 374.744184 339.445603 388.7974020000001L510.998905 560.2127479999999L680.405621 388.946933C694.387566 374.811547 717.181165 374.687159 731.316551 388.669104C745.451936 402.651049 745.576324 425.4446490000001 731.594379 439.580034L538.863221 634.42626C523.716114 649.739594 499.023047 649.874348 483.709713 634.727241z" />
    <glyph glyph-name="circle-warning"
      unicode="&#xE69B;"
      horiz-adv-x="1024" d="M512 1e-13C794.7776000000001 1e-13 1024 229.2224000000001 1024 512.0000000000001C1024 794.7776000000001 794.7775999999999 1024 511.9999999999999 1024C229.2224 1024 0 794.7776 0 512C0 229.2224 229.2224000000001 0 512 1e-13zM514 373L510 373C491.222319 373 476 388.2223190000001 476 407L476 407L475.9999999999999 776.0000000000001C475.9999999999999 794.7776810000001 491.222319 810.0000000000001 509.9999999999999 810.0000000000001L509.9999999999999 810.0000000000001L514 810.0000000000001C532.777681 810.0000000000001 548 794.7776810000001 548 776.0000000000001L548 776.0000000000001L548 407C548 388.2223190000001 532.777681 373 514 373L514 373zM514 205L510.0000000000001 205C491.2223190000001 205 476.0000000000001 220.2223190000001 476 239L476 239L476 267C476 285.7776810000001 491.222319 301 510 301L510 301L514 301C532.777681 301 548 285.7776810000001 548 267L548 267L548 239C548 220.2223190000001 532.777681 205 514 205L514 205z" />
    </font>
</defs>
</svg>
